<svg width="95" height="71" viewBox="0 0 95 71" fill="none" xmlns="http://www.w3.org/2000/svg">
<path d="M53.5503 1.98315V24.1498H62.8836V11.3165H79.217V17.1498L59.3836 64.9832H71.0503L88.5503 19.4832V1.98315H53.5503Z" fill="#F57500"/>
<path d="M59.3833 64.9832L64.05 69.6498H75.7166L71.05 64.9832H59.3833Z" fill="#F57500"/>
<path d="M88.5503 1.98315L93.217 6.64982V24.1498L88.5503 19.4832V1.98315Z" fill="#F57500"/>
<path d="M93.217 24.1498L75.717 69.6498L71.0503 64.9832L88.5503 19.4832L93.217 24.1498Z" fill="#F57500"/>
<path d="M53.5503 24.1497L58.217 28.8163H67.5503L62.8836 24.1497H53.5503Z" fill="#F57500"/>
<path d="M62.8833 11.3164L67.55 15.9831V28.8164L62.8833 24.1497V11.3164Z" fill="#F57500"/>
<path d="M67.55 15.9831H79.2166V11.3164H62.8833L67.55 15.9831Z" fill="#F57500"/>
<path d="M94.3833 24.1497V6.64974C94.3832 6.34035 94.2603 6.04365 94.0415 5.82491L89.3748 1.15824C89.1561 0.939432 88.8594 0.816472 88.55 0.816406H53.55C53.2405 0.816406 52.9438 0.939323 52.725 1.15811C52.5062 1.37691 52.3833 1.67365 52.3833 1.98307V24.1497C52.3834 24.4591 52.5063 24.7558 52.7251 24.9746L57.3918 29.6412C57.6105 29.86 57.9072 29.983 58.2166 29.9831H67.55C67.7807 29.9831 68.0063 29.9148 68.1981 29.7866C68.39 29.6585 68.5396 29.4764 68.628 29.2632C68.6733 29.1179 68.703 28.9681 68.7166 28.8164V17.1497H77.9531L58.3053 64.5362C58.2134 64.7481 58.1892 64.9832 58.236 65.2093C58.2828 65.4355 58.3982 65.6417 58.5666 65.7997L63.2333 70.4664C63.4487 70.6862 63.7422 70.812 64.05 70.8164H75.7166C75.7982 70.8165 75.8796 70.8079 75.9593 70.7907C76.1495 70.7505 76.3266 70.6633 76.4745 70.5372C76.6224 70.4111 76.7365 70.25 76.8063 70.0686L94.3063 24.5686C94.3461 24.4319 94.3719 24.2916 94.3833 24.1497ZM58.6996 27.6497L56.3663 25.3164H62.4003L64.7336 27.6497H58.6996ZM66.3833 26.0001L64.05 23.6667V14.1327L66.3833 16.4661V26.0001ZM68.033 14.8164L65.6996 12.4831H78.05V14.8164H68.033ZM80.2946 17.5966C80.3531 17.4548 80.3832 17.303 80.3833 17.1497V11.3164C80.3833 11.007 80.2604 10.7102 80.0416 10.4914C79.8228 10.2727 79.5261 10.1497 79.2166 10.1497H62.8833C62.5739 10.1497 62.2771 10.2727 62.0583 10.4914C61.8395 10.7102 61.7166 11.007 61.7166 11.3164V22.9831H54.7166V3.14974H87.3833V19.2661L70.2485 63.8164H61.1333L80.2946 17.5966ZM64.533 68.4831L62.1996 66.1497H70.567L72.9003 68.4831H64.533ZM75.2663 67.5497L72.4056 64.6891L88.9945 21.5831L91.8551 24.4437L75.2663 67.5497ZM92.05 21.3334L89.7166 19.0001V4.79941L92.05 7.13274V21.3334Z" fill="white"/>
<path d="M8.75 1.98315L1.75 8.98315V22.9832H13.4167V13.6498H27.4167V24.1498L1.75 48.6498V64.9832H39.0833V53.3165H14.5833L39.0833 28.8165V8.98315L32.0833 1.98315H8.75Z" fill="#F57500"/>
<path d="M1.75 64.9832L6.41667 69.6498H43.75L39.0833 64.9832H1.75Z" fill="#F57500"/>
<path d="M39.0835 53.3164L43.7502 57.9831V69.6497L39.0835 64.9831V53.3164Z" fill="#F57500"/>
<path d="M1.75 22.9832L6.41667 27.6498H18.0833L13.4167 22.9832H1.75Z" fill="#F57500"/>
<path d="M18.0837 27.6497V18.3163L13.417 13.6497V22.983L18.0837 27.6497Z" fill="#F57500"/>
<path d="M27.417 18.3163H18.0837L13.417 13.6497H27.417V18.3163Z" fill="#F57500"/>
<path d="M39.0835 8.98315L43.7502 13.6498V33.4832L39.0835 28.8165V8.98315Z" fill="#F57500"/>
<path d="M43.7502 33.4831L23.9168 53.3164H14.5835L39.0835 28.8164L43.7502 33.4831Z" fill="#F57500"/>
<path d="M32.9083 1.15824C32.6896 0.939432 32.3929 0.816472 32.0835 0.816406H8.75016C8.44077 0.816472 8.14407 0.939432 7.92533 1.15824L0.92533 8.15824C0.706522 8.37698 0.583562 8.67368 0.583496 8.98307V22.9831C0.583562 23.2925 0.706522 23.5892 0.92533 23.8079L5.592 28.4746C5.81074 28.6934 6.10744 28.8163 6.41683 28.8164H18.0835C18.3929 28.8164 18.6897 28.6935 18.9085 28.4747C19.1272 28.2559 19.2502 27.9592 19.2502 27.6497V19.4831H26.2502V23.6504L0.945163 47.8062C0.830986 47.9151 0.740066 48.0459 0.677903 48.1909C0.61574 48.3359 0.583624 48.492 0.583496 48.6497V64.9831C0.583562 65.2925 0.706522 65.5892 0.92533 65.8079L5.592 70.4746C5.81074 70.6934 6.10744 70.8163 6.41683 70.8164H43.7502C43.9809 70.8165 44.2065 70.7481 44.3983 70.62C44.5902 70.4919 44.7398 70.3097 44.8282 70.0966C44.8735 69.9512 44.9032 69.8014 44.9168 69.6497V57.9831C44.9168 57.6737 44.7938 57.377 44.575 57.1582L39.9083 52.4916C39.6896 52.2728 39.3929 52.1498 39.0835 52.1497H26.7332L44.5668 34.2997C44.7867 34.0843 44.9124 33.7908 44.9168 33.4831V13.6497C44.9168 13.3403 44.7938 13.0436 44.575 12.8249L32.9083 1.15824ZM6.89983 26.4831L4.5665 24.1497H12.9338L15.2672 26.4831H6.89983ZM16.9168 24.8334L14.5835 22.5001V16.4661L16.9168 18.7994V24.8334ZM18.5665 17.1497L16.2332 14.8164H26.2502V17.1497H18.5665ZM40.2502 56.1327L42.5835 58.4661V66.8334L40.2502 64.5001V56.1327ZM40.9338 68.4831H6.89983L4.5665 66.1497H38.6005L40.9338 68.4831ZM37.9168 54.4831V63.8164H2.91683V49.1491L28.2218 24.9991C28.3367 24.8896 28.4281 24.7577 28.4902 24.6117C28.5524 24.4657 28.5842 24.3085 28.5835 24.1497V13.6497C28.5835 13.3403 28.4606 13.0436 28.2418 12.8248C28.023 12.606 27.7262 12.4831 27.4168 12.4831H13.4168C13.1074 12.4831 12.8107 12.606 12.5919 12.8248C12.3731 13.0436 12.2502 13.3403 12.2502 13.6497V21.8164H2.91683V9.46607L9.23316 3.14974H31.6005L37.9168 9.46607V28.3334L13.7587 52.4916C13.5956 52.6547 13.4845 52.8626 13.4395 53.0889C13.3945 53.3151 13.4176 53.5497 13.5059 53.7628C13.5942 53.976 13.7437 54.1582 13.9355 54.2864C14.1273 54.4146 14.3528 54.483 14.5835 54.4831H37.9168ZM23.4338 52.1497H17.3998L39.0835 30.4661L42.1005 33.4831L23.4338 52.1497ZM42.5835 30.6667L40.2502 28.3334V11.7994L42.5835 14.1327V30.6667Z" fill="white"/>
</svg>
