<svg width="512" height="512" viewBox="0 0 512 512" fill="none" xmlns="http://www.w3.org/2000/svg">
<g clip-path="url(#clip0_4699_21)">
<mask id="path-2-outside-1_4699_21" maskUnits="userSpaceOnUse" x="81.7183" y="33.798" width="341" height="436" fill="black">
<rect fill="white" x="81.7183" y="33.798" width="341" height="436"/>
<path d="M406.591 322.379C404.237 347.736 396.992 370.467 384.857 390.571C372.903 410.676 356.059 426.524 334.324 438.116C312.59 449.526 285.693 455.232 253.635 455.232C221.758 455.232 194.046 447.625 170.5 432.41C146.955 417.196 128.662 395.733 115.621 368.022C102.761 340.129 96.3315 307.437 96.3315 269.945V234.355C96.3315 196.682 102.852 163.989 115.893 136.278C129.114 108.566 147.77 87.1035 171.859 71.8894C195.948 56.4941 224.474 48.7965 257.438 48.7965C288.229 48.7965 314.22 54.5018 335.411 65.9124C356.783 77.323 373.356 93.1711 385.129 113.457C396.902 133.742 404.056 157.016 406.591 183.279H345.192C341.931 156.835 333.781 136.187 320.74 121.335C307.881 106.302 286.78 98.7858 257.438 98.7858C235.523 98.7858 217.23 104.219 202.559 115.087C188.069 125.954 177.111 141.44 169.685 161.544C162.259 181.649 158.547 205.738 158.547 233.811V269.945C158.547 296.208 161.807 319.572 168.327 340.039C175.029 360.324 185.352 376.353 199.299 388.126C213.426 399.718 231.538 405.514 253.635 405.514C274.283 405.514 290.855 402.254 303.353 395.733C315.85 389.213 325.268 379.795 331.607 367.479C338.128 354.981 342.656 339.948 345.192 322.379H406.591Z"/>
</mask>
<path d="M406.591 322.379C404.237 347.736 396.992 370.467 384.857 390.571C372.903 410.676 356.059 426.524 334.324 438.116C312.59 449.526 285.693 455.232 253.635 455.232C221.758 455.232 194.046 447.625 170.5 432.41C146.955 417.196 128.662 395.733 115.621 368.022C102.761 340.129 96.3315 307.437 96.3315 269.945V234.355C96.3315 196.682 102.852 163.989 115.893 136.278C129.114 108.566 147.77 87.1035 171.859 71.8894C195.948 56.4941 224.474 48.7965 257.438 48.7965C288.229 48.7965 314.22 54.5018 335.411 65.9124C356.783 77.323 373.356 93.1711 385.129 113.457C396.902 133.742 404.056 157.016 406.591 183.279H345.192C341.931 156.835 333.781 136.187 320.74 121.335C307.881 106.302 286.78 98.7858 257.438 98.7858C235.523 98.7858 217.23 104.219 202.559 115.087C188.069 125.954 177.111 141.44 169.685 161.544C162.259 181.649 158.547 205.738 158.547 233.811V269.945C158.547 296.208 161.807 319.572 168.327 340.039C175.029 360.324 185.352 376.353 199.299 388.126C213.426 399.718 231.538 405.514 253.635 405.514C274.283 405.514 290.855 402.254 303.353 395.733C315.85 389.213 325.268 379.795 331.607 367.479C338.128 354.981 342.656 339.948 345.192 322.379H406.591Z" fill="#FF4026"/>
<path d="M406.591 322.379L421.019 323.719L422.489 307.89H406.591V322.379ZM384.857 390.571L372.452 383.084L372.427 383.125L372.403 383.166L384.857 390.571ZM334.324 438.116L341.06 450.945L341.101 450.923L341.143 450.901L334.324 438.116ZM115.621 368.022L102.462 374.089L102.486 374.14L102.51 374.192L115.621 368.022ZM115.893 136.278L102.815 130.038L102.798 130.073L102.782 130.108L115.893 136.278ZM171.859 71.8894L179.596 84.1403L179.629 84.1196L179.662 84.0987L171.859 71.8894ZM335.411 65.9124L328.541 78.6702L328.564 78.6824L328.587 78.6945L335.411 65.9124ZM406.591 183.279V197.768H422.548L421.014 181.886L406.591 183.279ZM345.192 183.279L330.811 185.052L332.378 197.768H345.192V183.279ZM320.74 121.335L309.729 130.754L309.79 130.825L309.852 130.896L320.74 121.335ZM202.559 115.087L193.934 103.443L193.9 103.469L193.865 103.495L202.559 115.087ZM168.327 340.039L154.521 344.437L154.544 344.511L154.569 344.584L168.327 340.039ZM199.299 388.126L189.952 399.199L190.029 399.264L190.108 399.328L199.299 388.126ZM331.607 367.479L318.761 360.776L318.742 360.812L318.724 360.847L331.607 367.479ZM345.192 322.379V307.89H332.643L330.85 320.31L345.192 322.379ZM392.164 321.04C389.994 344.408 383.365 365.004 372.452 383.084L397.262 398.059C410.619 375.93 418.48 351.065 421.019 323.719L392.164 321.04ZM372.403 383.166C361.874 400.873 347.035 414.915 327.506 425.331L341.143 450.901C365.082 438.133 383.932 420.478 397.311 397.977L372.403 383.166ZM327.589 425.286C308.47 435.324 284.041 440.742 253.635 440.742V469.721C287.346 469.721 316.71 463.729 341.06 450.945L327.589 425.286ZM253.635 440.742C224.154 440.742 199.257 433.74 178.364 420.24L162.637 444.581C188.836 461.509 219.361 469.721 253.635 469.721V440.742ZM178.364 420.24C157.303 406.631 140.729 387.347 128.731 361.852L102.51 374.192C116.594 404.119 136.607 427.761 162.637 444.581L178.364 420.24ZM128.779 361.955C116.968 336.337 110.821 305.795 110.821 269.945H81.8418C81.8418 309.079 88.5541 343.922 102.462 374.089L128.779 361.955ZM110.821 269.945V234.355H81.8418V269.945H110.821ZM110.821 234.355C110.821 198.335 117.055 167.837 129.003 142.448L102.782 130.108C88.6487 160.141 81.8418 195.029 81.8418 234.355H110.821ZM128.97 142.517C141.11 117.074 157.999 97.7808 179.596 84.1403L164.121 59.6385C137.541 76.4263 117.119 100.059 102.815 130.038L128.97 142.517ZM179.662 84.0987C201.081 70.4097 226.807 63.2862 257.438 63.2862V34.3067C222.142 34.3067 190.815 42.5785 164.056 59.6801L179.662 84.0987ZM257.438 63.2862C286.484 63.2862 309.97 68.6703 328.541 78.6702L342.281 53.1546C318.47 40.3333 289.974 34.3067 257.438 34.3067V63.2862ZM328.587 78.6945C347.663 88.8795 362.223 102.855 372.597 120.73L397.661 106.184C384.489 83.4869 365.903 65.7665 342.235 53.1303L328.587 78.6945ZM372.597 120.73C383.2 139.001 389.808 160.222 392.169 184.671L421.014 181.886C418.303 153.81 410.603 128.483 397.661 106.184L372.597 120.73ZM406.591 168.789H345.192V197.768H406.591V168.789ZM359.572 181.506C356.077 153.158 347.152 129.455 331.628 111.775L309.852 130.896C320.409 142.919 327.785 160.512 330.811 185.052L359.572 181.506ZM331.751 111.917C315.024 92.3628 288.932 84.2961 257.438 84.2961V113.276C284.628 113.276 300.737 120.242 309.729 130.754L331.751 111.917ZM257.438 84.2961C233.056 84.2961 211.569 90.3803 193.934 103.443L211.184 126.73C222.89 118.059 237.99 113.276 257.438 113.276V84.2961ZM193.865 103.495C176.762 116.322 164.306 134.29 156.093 156.524L183.278 166.565C189.917 148.589 199.376 135.586 211.253 126.679L193.865 103.495ZM156.093 156.524C147.922 178.647 144.057 204.526 144.057 233.811H173.036C173.036 206.949 176.597 184.65 183.278 166.565L156.093 156.524ZM144.057 233.811V269.945H173.036V233.811H144.057ZM144.057 269.945C144.057 297.38 147.46 322.273 154.521 344.437L182.133 335.64C176.154 316.871 173.036 295.035 173.036 269.945H144.057ZM154.569 344.584C161.964 366.971 173.634 385.423 189.952 399.199L208.645 377.054C197.071 367.284 188.093 353.677 182.085 335.494L154.569 344.584ZM190.108 399.328C207.338 413.466 228.914 420.004 253.635 420.004V391.024C234.162 391.024 219.514 385.971 208.49 376.925L190.108 399.328ZM253.635 420.004C275.611 420.004 294.751 416.565 310.055 408.58L296.65 382.887C286.96 387.943 272.954 391.024 253.635 391.024V420.004ZM310.055 408.58C325.155 400.702 336.757 389.136 344.491 374.11L318.724 360.847C313.78 370.454 306.545 377.725 296.65 382.887L310.055 408.58ZM344.454 374.181C351.897 359.915 356.821 343.235 359.533 324.449L330.85 320.31C328.49 336.662 324.358 350.048 318.761 360.776L344.454 374.181ZM345.192 336.869H406.591V307.89H345.192V336.869Z" fill="#FF4026" mask="url(#path-2-outside-1_4699_21)"/>
</g>
<defs>
<clipPath id="clip0_4699_21">
<rect width="512" height="512" rx="256" fill="white"/>
</clipPath>
</defs>
</svg>
