<svg width="37" height="37" viewBox="0 0 37 37" fill="none" xmlns="http://www.w3.org/2000/svg">
<path d="M28.252 23.3796H23.752V2.56714H18.127L6.87695 23.3796L10.252 27.8796H19.252V32.9421H23.752V27.8796H28.252V23.3796ZM12.502 23.3796L19.252 9.31714V23.3796H12.502Z" fill="#F57500"/>
<path d="M19.252 32.9421L21.502 35.1921H26.002L23.752 32.9421H19.252Z" fill="#F57500"/>
<path d="M23.752 27.8796V32.9421L26.002 35.1921V30.1296L23.752 27.8796Z" fill="#F57500"/>
<path d="M26.002 30.1296H30.502L28.252 27.8796H23.752L26.002 30.1296Z" fill="#F57500"/>
<path d="M28.252 23.3796L30.502 25.6296V30.1296L28.252 27.8796V23.3796Z" fill="#F57500"/>
<path d="M10.252 27.8796L12.502 30.1296H19.252V27.8796H10.252Z" fill="#F57500"/>
<path d="M12.502 23.3796L19.252 9.31714V14.9421L15.3145 23.3796H12.502Z" fill="#F57500"/>
<path d="M23.752 2.56714L26.002 4.81714V23.3796H23.752V2.56714Z" fill="#F57500"/>
<path d="M19.8146 9.31717C19.8143 9.18998 19.7708 9.06668 19.6914 8.96737C19.6119 8.86806 19.5011 8.79861 19.3771 8.77035C19.2531 8.74209 19.1232 8.75669 19.0086 8.81176C18.8939 8.86684 18.8013 8.95914 18.7459 9.0736L11.9959 23.1361C11.9547 23.2218 11.936 23.3165 11.9413 23.4114C11.9467 23.5063 11.976 23.5983 12.0266 23.6788C12.0771 23.7593 12.1473 23.8257 12.2304 23.8718C12.3136 23.9178 12.4071 23.942 12.5021 23.9422H19.2521C19.4013 23.9422 19.5444 23.8829 19.6499 23.7774C19.7554 23.6719 19.8146 23.5289 19.8146 23.3797V9.31717ZM18.6896 22.8172H16.1978L18.6896 17.4779V22.8172ZM18.6896 14.8173L14.9563 22.8172H13.396L18.6896 11.7888V14.8173Z" fill="white"/>
<path d="M28.6504 22.9825C28.5983 22.93 28.5362 22.8883 28.4678 22.8599C28.3995 22.8315 28.3262 22.817 28.2521 22.8171H26.5646V4.81714C26.5646 4.66797 26.5053 4.52492 26.3998 4.41945L24.1498 2.16945C24.0977 2.11707 24.0357 2.07553 23.9675 2.04724C23.8992 2.01895 23.826 2.00447 23.7521 2.00464H18.1271C18.0257 2.00458 17.9262 2.03195 17.839 2.08383C17.7519 2.13572 17.6804 2.2102 17.6321 2.29939L6.38213 23.1119C6.33098 23.2065 6.30803 23.3138 6.316 23.4211C6.32398 23.5284 6.36255 23.6311 6.42713 23.7171L9.80214 28.2171C9.81845 28.2391 9.85445 28.2773 9.85445 28.2773L12.1044 30.5273C12.2099 30.6328 12.353 30.6921 12.5021 30.6921H18.6896V32.9421C18.6895 33.0162 18.704 33.0895 18.7324 33.1579C18.7608 33.2262 18.8025 33.2883 18.855 33.3404L21.105 35.5904C21.2104 35.6955 21.3532 35.7546 21.5021 35.7546H26.0021C26.1513 35.7546 26.2944 35.6954 26.3999 35.5899C26.5054 35.4844 26.5646 35.3413 26.5646 35.1921V30.6921H30.5021C30.6134 30.6922 30.7221 30.6592 30.8146 30.5974C30.9072 30.5357 30.9793 30.4478 31.0219 30.3451C31.0437 30.275 31.0581 30.2028 31.0646 30.1296V25.6296C31.0646 25.4805 31.0053 25.3374 30.8998 25.232L28.6504 22.9825ZM24.3146 3.92502L25.4396 5.05001V22.8171H24.3146V3.92502ZM18.6896 29.5671H12.735L11.61 28.4421H18.6896V29.5671ZM19.2521 27.3171H10.5334L7.5437 23.3301L18.4646 3.12964H23.1896V23.3796C23.1896 23.5288 23.2489 23.6719 23.3544 23.7774C23.4599 23.8829 23.603 23.9421 23.7521 23.9421H27.6896V27.3171H23.7521C23.603 27.3171 23.4599 27.3764 23.3544 27.4819C23.2489 27.5874 23.1896 27.7305 23.1896 27.8796V32.3796H19.8146V27.8796C19.8146 27.7305 19.7554 27.5874 19.6499 27.4819C19.5444 27.3764 19.4013 27.3171 19.2521 27.3171ZM21.735 34.6296L20.61 33.5046H23.5193L24.6443 34.6296H21.735ZM25.4396 33.8343L24.3146 32.7093V29.2375L25.4396 30.3625V33.8343ZM26.235 29.5671L25.11 28.4421H28.0193L29.1443 29.5671H26.235ZM29.9396 28.7718L28.8146 27.6468V24.7375L29.9396 25.8625V28.7718Z" fill="white"/>
</svg>
