<svg width="37" height="37" viewBox="0 0 37 37" fill="none" xmlns="http://www.w3.org/2000/svg">
<path d="M21.0176 27.1688V2.41876H14.2676L8.64258 8.04376L11.4551 11.4188L15.3926 7.48126V27.1688H9.76758V32.7938H26.6426V27.1688H21.0176Z" fill="#F57500"/>
<path d="M9.76758 32.7938L12.0176 35.0438H28.8926L26.6426 32.7938H9.76758Z" fill="#F57500"/>
<path d="M26.6426 27.1688L28.8926 29.4188V35.0438L26.6426 32.7938V27.1688Z" fill="#F57500"/>
<path d="M11.4551 11.4188L13.1426 13.1063L15.3926 10.8563V7.48126L11.4551 11.4188Z" fill="#F57500"/>
<path d="M21.0176 2.41876L23.2676 4.66876V27.1688H21.0176V2.41876Z" fill="#F57500"/>
<path d="M12.7447 13.504C12.8502 13.6094 12.9933 13.6686 13.1424 13.6686C13.2916 13.6686 13.4346 13.6094 13.5401 13.504L14.8299 12.2141V26.6063H9.76741C9.61822 26.6063 9.47515 26.6655 9.36966 26.771C9.26417 26.8765 9.20491 27.0196 9.20491 27.1688V32.7938C9.21255 32.8558 9.22496 32.9171 9.24203 32.9771C9.27523 33.0533 9.31795 33.1249 9.36916 33.1903L11.6192 35.4403C11.6714 35.4928 11.7334 35.5345 11.8017 35.563C11.8701 35.5915 11.9434 35.6062 12.0174 35.6063H28.8924C29.0416 35.6063 29.1847 35.547 29.2902 35.4415C29.3956 35.336 29.4549 35.1929 29.4549 35.0438V29.4188C29.4549 29.2696 29.3956 29.1265 29.2901 29.0211L27.0401 26.7711C26.9346 26.6656 26.7916 26.6063 26.6424 26.6063H23.8299V4.66876C23.8299 4.51959 23.7706 4.37654 23.6651 4.27107L21.4151 2.02107C21.3096 1.91558 21.1666 1.85629 21.0174 1.85626H14.2674C14.1182 1.85629 13.9752 1.91558 13.8697 2.02107L8.24472 7.64607C8.14552 7.74533 8.087 7.87808 8.08065 8.01827C8.07431 8.15845 8.12059 8.29595 8.21041 8.40376L12.7447 13.504ZM13.1424 12.3109L12.2503 11.4188L14.8299 8.83914V10.6234L13.1424 12.3109ZM27.2049 28.5266L28.3299 29.6516V33.6859L27.2049 32.5609V28.5266ZM27.5345 34.4813H12.2503L11.1253 33.3563H26.4095L27.5345 34.4813ZM21.5799 3.77664L22.7049 4.90164V26.6063H21.5799V3.77664ZM14.5003 2.98126H20.4549V27.1688C20.4549 27.3179 20.5142 27.461 20.6197 27.5665C20.7252 27.672 20.8682 27.7313 21.0174 27.7313H26.0799V32.2313H10.3299V27.7313H15.3924C15.5416 27.7313 15.6847 27.672 15.7902 27.5665C15.8956 27.461 15.9549 27.3179 15.9549 27.1688V7.48126C15.9549 7.37003 15.9219 7.2613 15.8601 7.16882C15.7983 7.07634 15.7104 7.00426 15.6077 6.96169C15.5049 6.91913 15.3918 6.90799 15.2827 6.92968C15.1736 6.95138 15.0734 7.00493 14.9947 7.08357L11.4926 10.5857L9.40347 8.07864L14.5003 2.98126Z" fill="white"/>
</svg>
