<svg width="174" height="25" viewBox="0 0 174 25" fill="none" xmlns="http://www.w3.org/2000/svg">
<path d="M14.4124 1.93584L16.2872 7.70568C16.4989 8.35746 17.1063 8.79875 17.7916 8.79875H23.8584C25.3908 8.79875 26.028 10.7597 24.7882 11.6604L19.8801 15.2264C19.3257 15.6292 19.0937 16.3432 19.3055 16.995L21.1802 22.7649C21.6537 24.2223 19.9856 25.4342 18.7459 24.5335L13.8378 20.9675C13.2833 20.5647 12.5326 20.5647 11.9781 20.9675L7.07002 24.5335C5.83025 25.4342 4.16217 24.2223 4.63571 22.7649L6.51044 16.995C6.72221 16.3432 6.49021 15.6292 5.93579 15.2264L1.02768 11.6604C-0.212089 10.7597 0.425069 8.79875 1.95751 8.79875H8.02426C8.70959 8.79875 9.31698 8.35746 9.52874 7.70568L11.4035 1.93584C11.877 0.478417 13.9389 0.478417 14.4124 1.93584Z" fill="#FCB316"/>
<path d="M19.881 15.2295C19.3325 15.6369 19.0975 16.3421 19.3012 17.0002L21.1815 22.7664C21.4008 23.4559 21.1502 24.0827 20.6957 24.4587L9.14746 8.33501C9.3199 8.16267 9.44518 7.94328 9.5236 7.70831L11.4038 1.94204C11.874 0.484815 13.9423 0.484815 14.4124 1.94204L16.2926 7.70831C16.4963 8.3507 17.1075 8.80517 17.7969 8.80517H23.8609C25.3965 8.80517 26.0233 10.7638 24.7854 11.657L19.881 15.2295Z" fill="#F9A01B"/>
<path d="M51.4832 1.93584L53.358 7.70568C53.5697 8.35746 54.1771 8.79875 54.8624 8.79875H60.9292C62.4616 8.79875 63.0988 10.7597 61.859 11.6604L56.9509 15.2264C56.3965 15.6292 56.1645 16.3432 56.3763 16.995L58.251 22.7649C58.7245 24.2223 57.0564 25.4342 55.8167 24.5335L50.9086 20.9675C50.3541 20.5647 49.6034 20.5647 49.0489 20.9675L44.1408 24.5335C42.9011 25.4342 41.233 24.2223 41.7065 22.7649L43.5812 16.995C43.793 16.3432 43.561 15.6292 43.0066 15.2264L38.0985 11.6604C36.8587 10.7597 37.4959 8.79875 39.0283 8.79875H45.0951C45.7804 8.79875 46.3878 8.35746 46.5995 7.70568L48.4743 1.93584C48.9478 0.478417 51.0097 0.478417 51.4832 1.93584Z" fill="#FCB316"/>
<path d="M56.9518 15.2295C56.4033 15.6369 56.1683 16.3421 56.372 17.0002L58.2523 22.7664C58.4716 23.4559 58.221 24.0827 57.7665 24.4587L46.2183 8.33501C46.3907 8.16267 46.516 7.94328 46.5944 7.70831L48.4746 1.94204C48.9448 0.484815 51.013 0.484815 51.4832 1.94204L53.3634 7.70831C53.5671 8.3507 54.1783 8.80517 54.8677 8.80517H60.9317C62.4673 8.80517 63.0941 10.7638 61.8562 11.657L56.9518 15.2295Z" fill="#F9A01B"/>
<path d="M88.554 1.93584L90.4288 7.70568C90.6405 8.35746 91.2479 8.79875 91.9332 8.79875H98C99.5324 8.79875 100.17 10.7597 98.9298 11.6604L94.0217 15.2264C93.4673 15.6292 93.2353 16.3432 93.4471 16.995L95.3218 22.7649C95.7953 24.2223 94.1273 25.4342 92.8875 24.5335L87.9794 20.9675C87.4249 20.5647 86.6742 20.5647 86.1197 20.9675L81.2116 24.5335C79.9719 25.4342 78.3038 24.2223 78.7773 22.7649L80.652 16.995C80.8638 16.3432 80.6318 15.6292 80.0774 15.2264L75.1693 11.6604C73.9295 10.7597 74.5667 8.79875 76.0991 8.79875H82.1659C82.8512 8.79875 83.4586 8.35746 83.6703 7.70568L85.5451 1.93584C86.0186 0.478417 88.0805 0.478417 88.554 1.93584Z" fill="#FCB316"/>
<path d="M94.0221 15.2295C93.4736 15.6369 93.2386 16.3421 93.4423 17.0002L95.3227 22.7664C95.5419 23.4559 95.2913 24.0827 94.8368 24.4587L83.2886 8.33501C83.461 8.16267 83.5863 7.94328 83.6647 7.70831L85.5449 1.94204C86.0151 0.484815 88.0834 0.484815 88.5535 1.94204L90.4337 7.70831C90.6374 8.3507 91.2486 8.80517 91.938 8.80517H98.002C99.5376 8.80517 100.164 10.7638 98.9265 11.657L94.0221 15.2295Z" fill="#F9A01B"/>
<path d="M125.625 1.93584L127.5 7.70568C127.711 8.35746 128.319 8.79875 129.004 8.79875H135.071C136.603 8.79875 137.24 10.7597 136.001 11.6604L131.093 15.2264C130.538 15.6292 130.306 16.3432 130.518 16.995L132.393 22.7649C132.866 24.2223 131.198 25.4342 129.958 24.5335L125.05 20.9675C124.496 20.5647 123.745 20.5647 123.191 20.9675L118.282 24.5335C117.043 25.4342 115.375 24.2223 115.848 22.7649L117.723 16.995C117.935 16.3432 117.703 15.6292 117.148 15.2264L112.24 11.6604C111 10.7597 111.637 8.79875 113.17 8.79875H119.237C119.922 8.79875 120.529 8.35746 120.741 7.70568L122.616 1.93584C123.089 0.478417 125.151 0.478417 125.625 1.93584Z" fill="#FCB316"/>
<path d="M131.093 15.2295C130.544 15.6369 130.309 16.3421 130.513 17.0002L132.393 22.7664C132.613 23.4559 132.362 24.0827 131.908 24.4587L120.359 8.33502C120.532 8.16267 120.657 7.94328 120.736 7.7083L122.616 1.94204C123.086 0.484815 125.154 0.484815 125.624 1.94204L127.505 7.7083C127.708 8.3507 128.319 8.80517 129.009 8.80517H135.073C136.608 8.80517 137.235 10.7638 135.997 11.657L131.093 15.2295Z" fill="#F9A01B"/>
<path d="M162.696 1.93584L164.57 7.70568C164.782 8.35746 165.39 8.79875 166.075 8.79875H172.142C173.674 8.79875 174.311 10.7597 173.071 11.6604L168.163 15.2264C167.609 15.6292 167.377 16.3432 167.589 16.995L169.463 22.7649C169.937 24.2223 168.269 25.4342 167.029 24.5335L162.121 20.9675C161.567 20.5647 160.816 20.5647 160.261 20.9675L155.353 24.5335C154.113 25.4342 152.445 24.2223 152.919 22.7649L154.794 16.995C155.005 16.3432 154.773 15.6292 154.219 15.2264L149.311 11.6604C148.071 10.7597 148.708 8.79875 150.241 8.79875H156.307C156.993 8.79875 157.6 8.35746 157.812 7.70568L159.687 1.93584C160.16 0.478417 162.222 0.478417 162.696 1.93584Z" fill="#FCB316"/>
<path d="M168.164 15.2295C167.616 15.6369 167.381 16.3421 167.584 17.0002L169.465 22.7664C169.684 23.4559 169.433 24.0827 168.979 24.4587L157.431 8.33502C157.603 8.16267 157.728 7.94328 157.807 7.7083L159.687 1.94204C160.157 0.484815 162.225 0.484815 162.696 1.94204L164.576 7.7083C164.78 8.3507 165.391 8.80517 166.08 8.80517H172.144C173.68 8.80517 174.306 10.7638 173.069 11.657L168.164 15.2295Z" fill="#F9A01B"/>
</svg>
