<svg width="186" height="216" viewBox="0 0 186 216" fill="none" xmlns="http://www.w3.org/2000/svg">
<path d="M185.536 163.379V118.396C185.536 53.4472 132.884 0.795654 67.9354 0.795654H39.8042C30.6876 0.795654 21.8552 3.96764 14.8216 9.76759C5.7754 17.2271 0.535889 28.3388 0.535889 40.0639V106.932C0.535889 167.056 49.2724 215.796 109.396 215.796H133.111C147.199 215.796 160.702 210.125 170.561 200.062C180.16 190.265 185.536 177.095 185.536 163.379Z" fill="#004041"/>
<path opacity="0.5" d="M164.659 116.226V151.543C164.659 162.05 160.541 172.138 153.188 179.643C145.635 187.352 135.292 191.696 124.5 191.696H105.88C59.2288 191.696 21.4126 153.877 21.4126 107.225V54.7259C21.4126 45.8189 25.3928 37.3779 32.2647 31.7113C37.6078 27.3054 44.3174 24.8958 51.2428 24.8958H73.3291C123.769 24.8958 164.659 65.7856 164.659 116.226Z" stroke="white" stroke-width="2"/>
<path opacity="0.5" d="M174.6 117.311V157.462C174.6 169.443 169.904 180.947 161.519 189.505C152.907 198.295 141.112 203.248 128.807 203.248H107.639C54.5257 203.248 11.4719 160.192 11.4719 107.079V47.3932C11.4719 37.2262 16.0152 27.591 23.8593 21.1227C29.9582 16.0935 37.617 13.343 45.5221 13.343H70.6316C128.052 13.343 174.6 59.8912 174.6 117.311Z" stroke="white" stroke-width="2"/>
</svg>
