<svg width="512" height="512" viewBox="0 0 512 512" fill="none" xmlns="http://www.w3.org/2000/svg">
<rect width="512" height="512" rx="256" fill="white"/>
<mask id="path-2-outside-1_4699_21" maskUnits="userSpaceOnUse" x="133.065" y="108.001" width="236" height="301" fill="black">
<rect fill="white" x="133.065" y="108.001" width="236" height="301"/>
<path d="M357.626 307.064C356.001 324.564 351.001 340.251 342.626 354.126C334.376 368.001 322.751 378.939 307.751 386.939C292.751 394.814 274.189 398.751 252.064 398.751C230.064 398.751 210.939 393.501 194.689 383.001C178.439 372.501 165.814 357.689 156.814 338.564C147.939 319.314 143.502 296.752 143.502 270.877V246.314C143.502 220.315 148.002 197.752 157.002 178.627C166.127 159.502 179.002 144.69 195.627 134.19C212.252 123.565 231.939 118.253 254.689 118.253C275.939 118.253 293.876 122.19 308.501 130.065C323.251 137.94 334.688 148.877 342.813 162.877C350.938 176.877 355.876 192.94 357.626 211.065H315.251C313.001 192.815 307.376 178.565 298.376 168.315C289.501 157.94 274.939 152.752 254.689 152.752C239.564 152.752 226.939 156.502 216.814 164.002C206.814 171.502 199.252 182.19 194.127 196.065C189.002 209.94 186.439 226.565 186.439 245.939V270.877C186.439 289.002 188.689 305.127 193.189 319.252C197.814 333.251 204.939 344.314 214.564 352.439C224.314 360.439 236.814 364.439 252.064 364.439C266.314 364.439 277.751 362.189 286.376 357.689C295.001 353.189 301.501 346.689 305.876 338.189C310.376 329.564 313.501 319.189 315.251 307.064H357.626Z"/>
</mask>
<path d="M357.626 307.064C356.001 324.564 351.001 340.251 342.626 354.126C334.376 368.001 322.751 378.939 307.751 386.939C292.751 394.814 274.189 398.751 252.064 398.751C230.064 398.751 210.939 393.501 194.689 383.001C178.439 372.501 165.814 357.689 156.814 338.564C147.939 319.314 143.502 296.752 143.502 270.877V246.314C143.502 220.315 148.002 197.752 157.002 178.627C166.127 159.502 179.002 144.69 195.627 134.19C212.252 123.565 231.939 118.253 254.689 118.253C275.939 118.253 293.876 122.19 308.501 130.065C323.251 137.94 334.688 148.877 342.813 162.877C350.938 176.877 355.876 192.94 357.626 211.065H315.251C313.001 192.815 307.376 178.565 298.376 168.315C289.501 157.94 274.939 152.752 254.689 152.752C239.564 152.752 226.939 156.502 216.814 164.002C206.814 171.502 199.252 182.19 194.127 196.065C189.002 209.94 186.439 226.565 186.439 245.939V270.877C186.439 289.002 188.689 305.127 193.189 319.252C197.814 333.251 204.939 344.314 214.564 352.439C224.314 360.439 236.814 364.439 252.064 364.439C266.314 364.439 277.751 362.189 286.376 357.689C295.001 353.189 301.501 346.689 305.876 338.189C310.376 329.564 313.501 319.189 315.251 307.064H357.626Z" fill="#FF4026"/>
<path d="M357.626 307.064L367.583 307.989L368.597 297.064H357.626V307.064ZM342.626 354.126L334.065 348.959L334.047 348.987L334.03 349.016L342.626 354.126ZM307.751 386.939L312.399 395.793L312.428 395.777L312.457 395.762L307.751 386.939ZM156.814 338.564L147.733 342.751L147.749 342.786L147.766 342.822L156.814 338.564ZM157.002 178.627L147.977 174.321L147.965 174.345L147.954 174.369L157.002 178.627ZM195.627 134.19L200.967 142.645L200.989 142.631L201.012 142.616L195.627 134.19ZM308.501 130.065L303.76 138.87L303.776 138.878L303.791 138.887L308.501 130.065ZM357.626 211.065V221.065H368.638L367.579 210.104L357.626 211.065ZM315.251 211.065L305.326 212.288L306.408 221.065H315.251V211.065ZM298.376 168.315L290.777 174.815L290.819 174.864L290.862 174.913L298.376 168.315ZM216.814 164.002L210.862 155.967L210.838 155.985L210.814 156.002L216.814 164.002ZM193.189 319.252L183.661 322.287L183.677 322.338L183.694 322.388L193.189 319.252ZM214.564 352.439L208.114 360.08L208.167 360.125L208.221 360.17L214.564 352.439ZM305.876 338.189L297.01 333.563L296.997 333.588L296.985 333.612L305.876 338.189ZM315.251 307.064V297.064H306.591L305.354 305.636L315.251 307.064ZM347.669 306.14C346.171 322.267 341.596 336.481 334.065 348.959L351.187 359.294C360.406 344.022 365.83 326.861 367.583 307.989L347.669 306.14ZM334.03 349.016C326.764 361.236 316.523 370.927 303.045 378.115L312.457 395.762C328.979 386.951 341.988 374.766 351.221 359.237L334.03 349.016ZM303.103 378.085C289.908 385.012 273.048 388.751 252.064 388.751V408.751C275.329 408.751 295.594 404.615 312.399 395.793L303.103 378.085ZM252.064 388.751C231.718 388.751 214.535 383.919 200.116 374.602L189.262 391.4C207.343 403.083 228.41 408.751 252.064 408.751V388.751ZM200.116 374.602C185.581 365.21 174.143 351.901 165.863 334.306L147.766 342.822C157.486 363.476 171.298 379.793 189.262 391.4L200.116 374.602ZM165.896 334.377C157.744 316.697 153.502 295.618 153.502 270.877H133.502C133.502 297.885 138.134 321.931 147.733 342.751L165.896 334.377ZM153.502 270.877V246.314H133.502V270.877H153.502ZM153.502 246.314C153.502 221.455 157.804 200.408 166.05 182.885L147.954 174.369C138.2 195.097 133.502 219.174 133.502 246.314H153.502ZM166.027 182.934C174.405 165.374 186.061 152.059 200.967 142.645L190.287 125.735C171.942 137.321 157.848 153.631 147.977 174.321L166.027 182.934ZM201.012 142.616C215.794 133.169 233.549 128.253 254.689 128.253V108.253C230.329 108.253 208.709 113.961 190.242 125.764L201.012 142.616ZM254.689 128.253C274.734 128.253 290.943 131.968 303.76 138.87L313.242 121.26C296.809 112.412 277.143 108.253 254.689 108.253V128.253ZM303.791 138.887C316.957 145.916 327.005 155.561 334.164 167.897L351.462 157.858C342.372 142.194 329.545 129.964 313.211 121.244L303.791 138.887ZM334.164 167.897C341.482 180.507 346.043 195.152 347.672 212.026L367.579 210.104C365.709 190.727 360.394 173.248 351.462 157.858L334.164 167.897ZM357.626 201.065H315.251V221.065H357.626V201.065ZM325.176 209.841C322.764 190.277 316.604 173.919 305.89 161.717L290.862 174.913C298.148 183.211 303.238 195.352 305.326 212.288L325.176 209.841ZM305.975 161.815C294.431 148.32 276.424 142.752 254.689 142.752V162.752C273.453 162.752 284.571 167.56 290.777 174.815L305.975 161.815ZM254.689 142.752C237.862 142.752 223.033 146.951 210.862 155.967L222.766 172.038C230.845 166.053 241.266 162.752 254.689 162.752V142.752ZM210.814 156.002C199.011 164.855 190.414 177.256 184.746 192.6L203.507 199.53C208.089 187.124 214.618 178.15 222.814 172.002L210.814 156.002ZM184.746 192.6C179.106 207.868 176.439 225.729 176.439 245.939H196.439C196.439 227.4 198.897 212.011 203.507 199.53L184.746 192.6ZM176.439 245.939V270.877H196.439V245.939H176.439ZM176.439 270.877C176.439 289.811 178.788 306.99 183.661 322.287L202.717 316.216C198.591 303.263 196.439 288.192 196.439 270.877H176.439ZM183.694 322.388C188.798 337.839 196.851 350.573 208.114 360.08L221.015 344.797C213.027 338.055 206.83 328.664 202.684 316.115L183.694 322.388ZM208.221 360.17C220.112 369.927 235.003 374.439 252.064 374.439V354.439C238.625 354.439 228.516 350.951 220.907 344.708L208.221 360.17ZM252.064 374.439C267.231 374.439 280.44 372.065 291.002 366.555L281.75 348.823C275.063 352.312 265.397 354.439 252.064 354.439V374.439ZM291.002 366.555C301.423 361.118 309.43 353.136 314.767 342.765L296.985 333.612C293.572 340.242 288.579 345.26 281.75 348.823L291.002 366.555ZM314.742 342.815C319.879 332.969 323.277 321.457 325.148 308.493L305.354 305.636C303.725 316.921 300.873 326.159 297.01 333.563L314.742 342.815ZM315.251 317.064H357.626V297.064H315.251V317.064Z" fill="#FF4026" mask="url(#path-2-outside-1_4699_21)"/>
</svg>
