<svg width="60" height="61" viewBox="0 0 60 61" fill="none" xmlns="http://www.w3.org/2000/svg">
<g clip-path="url(#clip0_4402_593)">
<path d="M59.9959 52.1338L59.9556 51.2117C59.935 50.7404 59.5336 50.3759 59.0652 50.396C58.5941 50.4167 58.229 50.8152 58.2496 51.2864L58.2903 52.216C58.2906 52.2216 58.2908 52.2272 58.2912 52.2328C58.3022 52.4046 58.2434 52.5683 58.1257 52.6937C58.0088 52.8184 57.8503 52.8871 57.6797 52.8871H52.6842V37.1255L53.9721 37.5806C56.1915 38.3649 57.7231 40.3905 57.876 42.7428L58.0176 45.9813C58.0382 46.4524 58.4362 46.8185 58.9078 46.797C59.3791 46.7763 59.7442 46.3778 59.7236 45.9067L59.5817 42.6596C59.5813 42.654 59.5811 42.6484 59.5807 42.6428C59.3873 39.6032 57.4091 36.9841 54.5411 35.9707L52.1563 35.1279C52.1422 35.122 52.1292 35.1145 52.1148 35.1095L44.9926 32.5923C44.9914 32.5918 44.9902 32.5913 44.989 32.591C44.9625 32.5819 44.9362 32.5741 44.9095 32.5672C44.8961 32.5636 44.8825 32.5612 44.869 32.5583C44.3977 32.4363 43.8869 32.5719 43.5396 32.9198L43.3194 33.1404L41.4401 32.197L41.4398 30.5496C42.0077 30.1586 42.5426 29.6924 43.0282 29.172C43.0339 29.1658 43.0397 29.1597 43.0454 29.1535C44.2718 27.8328 45.177 26.1702 45.4849 24.5183C45.4931 24.4747 45.5012 24.431 45.5086 24.3874C45.5162 24.3421 45.5234 24.297 45.53 24.2519C45.5413 24.1764 45.5511 24.1011 45.5598 24.0259C45.5619 24.0078 45.5646 23.9896 45.5665 23.9716C45.5752 23.8898 45.5825 23.8081 45.588 23.7268H45.9424C47.043 23.7268 47.9385 22.8314 47.9385 21.7307V19.4935C47.9385 19.3877 47.9292 19.2828 47.9127 19.1792C48.0386 18.9506 48.111 18.6878 48.111 18.4079V17.454C48.111 16.7287 47.629 16.1155 46.9725 15.9258V15.7912C46.9725 15.7097 46.9714 15.6284 46.9695 15.5476C46.9117 13.2707 46.0177 11.1139 44.4524 9.47454C43.0244 7.97911 41.1566 7.03246 39.145 6.77407C39.1142 6.71899 39.081 6.66578 39.0464 6.61352C39.0375 6.60016 39.0281 6.58727 39.019 6.57403C38.9841 6.5234 38.9473 6.4743 38.9088 6.42672C38.902 6.4184 38.8956 6.40985 38.8888 6.40164C38.8412 6.34434 38.7913 6.28926 38.7388 6.23664C38.737 6.23488 38.7351 6.23324 38.7333 6.23137C38.6822 6.18051 38.6287 6.13223 38.5734 6.08606C38.5672 6.0809 38.5611 6.07563 38.5549 6.07047C38.441 5.97719 38.3188 5.89457 38.1898 5.82297C38.1782 5.81652 38.1667 5.81008 38.1549 5.80375C38.0908 5.76953 38.0256 5.73742 37.9584 5.70895C37.955 5.70754 37.9514 5.70637 37.9479 5.70484C37.8859 5.67883 37.8224 5.65609 37.758 5.63523C37.7406 5.62949 37.723 5.62398 37.7054 5.61871C37.6371 5.59832 37.5682 5.57969 37.4978 5.56516C37.4938 5.56434 37.4898 5.56387 37.4858 5.56316C37.4184 5.54957 37.35 5.53973 37.2808 5.53176C37.2619 5.52953 37.2429 5.52766 37.2238 5.5259C37.1502 5.51922 37.0761 5.51465 37.0011 5.51465H36.1952C36.1202 5.51465 36.0462 5.51922 35.9726 5.5259C35.9533 5.52766 35.9344 5.52965 35.9154 5.53176C35.8465 5.53961 35.7781 5.54957 35.7109 5.56305C35.7068 5.56387 35.7027 5.56434 35.6986 5.56516C35.6283 5.57969 35.5592 5.5982 35.491 5.61859C35.4733 5.62387 35.4558 5.62949 35.4382 5.63523C35.374 5.65609 35.3106 5.67883 35.2486 5.70473C35.2451 5.70625 35.2413 5.70742 35.2378 5.70895C35.1706 5.73742 35.1055 5.76953 35.0414 5.80363C35.0296 5.80996 35.0178 5.81652 35.0061 5.82297C34.9435 5.85766 34.8821 5.89445 34.8228 5.93441C34.8227 5.93453 34.8225 5.93465 34.8224 5.93477C34.7598 5.97695 34.6997 6.02254 34.6412 6.07035C34.6349 6.07551 34.6287 6.0809 34.6224 6.08617C34.5672 6.13223 34.5139 6.18039 34.4629 6.23113C34.4611 6.23301 34.4591 6.23477 34.4572 6.23664C34.4048 6.28914 34.3549 6.34422 34.3074 6.40141C34.3005 6.40973 34.294 6.41828 34.2872 6.42672C34.2487 6.47418 34.2121 6.52328 34.1771 6.57379C34.168 6.58703 34.1585 6.59992 34.1496 6.6134C34.115 6.66555 34.0817 6.71887 34.051 6.77395C32.0395 7.03235 30.1715 7.97911 28.7437 9.4743C27.9809 10.2732 27.3791 11.1954 26.9541 12.194L22.0085 7.56098C20.9934 6.61012 19.4051 6.61223 18.3929 7.56602L13.028 12.6199L13.0271 12.029C13.0266 11.6903 12.8943 11.3722 12.6544 11.1331C12.415 10.8944 12.0973 10.763 11.7593 10.763C11.7588 10.763 11.7581 10.763 11.7575 10.763L7.73559 10.7686C7.03668 10.7697 6.46867 11.3391 6.46949 12.0384L6.48051 18.7878L0.829834 24.1109C0.316434 24.5946 0.022176 25.2491 0.00119942 25.9541C-0.0197772 26.6591 0.234989 27.33 0.718506 27.8431C1.20202 28.3565 1.85652 28.6508 2.56152 28.6719C2.58859 28.6727 2.61542 28.6731 2.64226 28.6731C3.31761 28.6731 3.95711 28.4196 4.4507 27.9545L6.36426 26.1518L6.37258 32.1378C6.37328 32.6089 6.75531 32.9904 7.22641 32.9904C7.22676 32.9904 7.22723 32.9904 7.22758 32.9904C7.69914 32.9897 8.08094 32.6069 8.08024 32.1354L8.06957 24.5454L20.2081 13.1103L25.0848 17.6787V18.4078C25.0848 18.4572 25.0877 18.5062 25.0921 18.5548C25.093 18.5639 25.0937 18.5729 25.0947 18.5819C25.1175 18.7953 25.1812 18.9987 25.2826 19.182C25.2664 19.2846 25.2574 19.3885 25.2574 19.4934V21.7306C25.2574 22.8312 26.1528 23.7267 27.2536 23.7267H27.6068C27.6123 23.8111 27.6198 23.8957 27.6287 23.9806C27.6311 24.0045 27.6345 24.0286 27.6373 24.0525C27.6455 24.1229 27.6547 24.1934 27.6651 24.2642C27.6713 24.3066 27.6779 24.3492 27.6849 24.3916C27.6934 24.4421 27.7029 24.4928 27.7123 24.5435C27.732 24.6484 27.7542 24.7534 27.7787 24.8582C27.7831 24.8775 27.7872 24.8967 27.7919 24.9159C27.8089 24.9863 27.8273 25.0566 27.8464 25.127C27.8503 25.141 27.8541 25.1552 27.8581 25.1693C28.0101 25.7177 28.2241 26.2623 28.4904 26.7904C28.4932 26.7961 28.496 26.8017 28.4989 26.8073C28.6053 27.0175 28.7199 27.2248 28.8423 27.4289C28.8584 27.4558 28.8744 27.4828 28.8908 27.5096C28.9238 27.5636 28.9574 27.6174 28.9915 27.6709C29.0172 27.7113 29.0435 27.7515 29.0698 27.7916C29.0995 27.8367 29.1288 27.882 29.1591 27.9268C29.2133 28.0066 29.2688 28.0856 29.3253 28.1641C29.3495 28.1976 29.3742 28.2306 29.3987 28.2638C29.4407 28.3209 29.4834 28.3776 29.5268 28.4339C29.5504 28.4646 29.574 28.4953 29.5979 28.5256C29.6568 28.6005 29.7168 28.6748 29.7779 28.7482C29.7867 28.7587 29.7951 28.7694 29.8039 28.7798C29.8711 28.8599 29.9397 28.9385 30.0093 29.0165C30.0338 29.0441 30.0587 29.0711 30.0834 29.0983C30.1324 29.1521 30.182 29.2054 30.2321 29.2582C30.2599 29.2874 30.2874 29.3166 30.3154 29.3455C30.3757 29.4074 30.4367 29.4684 30.4984 29.5288C30.5428 29.5722 30.5879 29.6148 30.6331 29.6573C30.671 29.6929 30.7088 29.7287 30.7473 29.7637C30.7938 29.8063 30.8408 29.848 30.888 29.8895C30.9131 29.9115 30.9384 29.9333 30.9637 29.955C31.2191 30.1749 31.4836 30.3797 31.7558 30.5672L31.7556 32.1967L29.8768 33.1402L29.6563 32.9194C29.4451 32.7078 29.1736 32.5747 28.8873 32.5301C28.8555 32.5251 28.8235 32.5213 28.7914 32.5185C28.7593 32.5158 28.7271 32.514 28.6947 32.5135C28.6625 32.5131 28.63 32.5136 28.5978 32.5154C28.5092 32.5202 28.4207 32.5342 28.3334 32.5563C28.3168 32.5598 28.3 32.5631 28.2834 32.5676C28.2574 32.5743 28.2262 32.5836 28.2032 32.5918L24.9973 33.7249L24.9889 27.6518C24.9879 26.8687 24.3505 26.2326 23.5678 26.2326C23.5671 26.2326 23.5665 26.2326 23.5658 26.2326L16.8872 26.242C16.5077 26.2426 16.151 26.3908 15.8829 26.6597C15.6149 26.9284 15.4675 27.2856 15.4681 27.6651L15.4828 38.116C15.4816 38.1174 15.4804 38.1189 15.4791 38.1203C15.456 38.1465 15.4341 38.1737 15.4114 38.2003C15.3751 38.2428 15.3385 38.2851 15.3031 38.3286C15.2808 38.3559 15.2596 38.384 15.2378 38.4117C15.2033 38.4553 15.1685 38.4987 15.1349 38.5431C15.1135 38.5714 15.0931 38.6006 15.072 38.6293C15.0393 38.6739 15.0062 38.7182 14.9744 38.7635C14.9539 38.7927 14.9345 38.8227 14.9145 38.8521C14.8835 38.8977 14.852 38.9432 14.8219 38.9894C14.8024 39.0196 14.7838 39.0505 14.7647 39.081C14.7354 39.1275 14.7058 39.1739 14.6776 39.2211C14.6592 39.2518 14.6419 39.2832 14.6239 39.3142C14.5962 39.362 14.5681 39.4096 14.5414 39.458C14.5238 39.4899 14.5073 39.5225 14.4902 39.5549C14.4646 39.603 14.4386 39.6508 14.414 39.6996C14.3968 39.7337 14.3808 39.7684 14.3641 39.8027C14.3409 39.8504 14.3173 39.8979 14.2951 39.9462C14.2788 39.9814 14.2638 40.0173 14.2481 40.0529C14.2269 40.1011 14.2052 40.1489 14.1849 40.1975C14.1697 40.2341 14.1556 40.2714 14.141 40.3083C14.1217 40.3564 14.102 40.4044 14.0839 40.453C14.0696 40.4912 14.0566 40.5299 14.0429 40.5683C14.0258 40.6165 14.0081 40.6644 13.9918 40.7129C13.9786 40.7522 13.9668 40.792 13.9544 40.8315C13.9392 40.8798 13.9233 40.9278 13.909 40.9766C13.8972 41.017 13.8867 41.0579 13.8754 41.0986C13.862 41.1471 13.8481 41.1954 13.8357 41.2442C13.8253 41.2853 13.8161 41.3269 13.8064 41.3682C13.7948 41.4172 13.7826 41.4661 13.7719 41.5154C13.7628 41.5578 13.7551 41.6007 13.7466 41.6434C13.737 41.6921 13.7268 41.7407 13.718 41.7896C13.7102 41.8339 13.7037 41.8786 13.6967 41.923C13.6891 41.9709 13.6808 42.0187 13.6741 42.0669C13.6676 42.1126 13.6627 42.1587 13.6572 42.2045C13.6515 42.2521 13.645 42.2994 13.6401 42.3472C13.6353 42.3937 13.632 42.4406 13.6281 42.4874C13.6245 42.531 13.6199 42.5744 13.617 42.6182L8.12981 42.6258C8.11059 42.6258 8.09501 42.6102 8.09501 42.591L8.08786 37.4406C8.08715 36.9694 7.70512 36.5879 7.23403 36.5879C7.23367 36.5879 7.23321 36.5879 7.23285 36.5879C6.76129 36.5886 6.37949 36.9713 6.3802 37.4429L6.38735 42.5934C6.38875 43.5534 7.17016 44.3334 8.12981 44.3334C8.13063 44.3334 8.13145 44.3334 8.13215 44.3334L13.5417 44.3259L13.2002 52.1338C13.1623 52.7688 13.3899 53.3984 13.8251 53.8622C14.2619 54.3277 14.8784 54.5946 15.5164 54.5946H57.6797C58.3177 54.5946 58.9341 54.3277 59.3708 53.8622C59.8062 53.3984 60.0338 52.7688 59.9959 52.1338ZM46.2308 21.7306C46.2308 21.8896 46.1014 22.019 45.9424 22.019H45.6014V19.9964H46.2308V21.7306ZM35.4679 7.79442C35.4688 7.79137 35.4702 7.78856 35.471 7.78551C35.5024 7.66293 35.5632 7.55418 35.6443 7.46559C35.6463 7.46336 35.6483 7.46114 35.6503 7.45903C35.676 7.43161 35.7037 7.40629 35.7331 7.38309C35.7365 7.38039 35.7402 7.37782 35.7437 7.37524C35.8032 7.33 35.8694 7.29391 35.9405 7.26801C35.9458 7.26602 35.9511 7.26391 35.9565 7.26215C35.9906 7.25067 36.0258 7.24164 36.0617 7.23508C36.0682 7.23391 36.0747 7.23309 36.0812 7.23215C36.1186 7.22641 36.1564 7.22254 36.1951 7.22254H37.001C37.0397 7.22254 37.0776 7.22641 37.1149 7.23215C37.1214 7.23309 37.1279 7.23391 37.1344 7.23508C37.1702 7.24164 37.2054 7.25055 37.2395 7.26215C37.245 7.26403 37.2504 7.26614 37.2559 7.26813C37.3267 7.29391 37.3928 7.33 37.4522 7.37512C37.4558 7.37782 37.4596 7.38051 37.4631 7.38321C37.4924 7.40629 37.5199 7.43149 37.5456 7.45879C37.5478 7.46114 37.5498 7.46348 37.5519 7.46582C37.6329 7.55442 37.6936 7.66293 37.725 7.7854C37.7258 7.78844 37.7272 7.79114 37.728 7.79418C37.742 7.85114 37.7502 7.91043 37.7502 7.97161V10.8527C37.7502 11.2658 37.4141 11.6018 37.0011 11.6018H36.1952C35.7821 11.6018 35.446 11.2658 35.446 10.8527V7.97161C35.446 7.91043 35.4541 7.85137 35.4679 7.79442ZM11.3201 12.4711L11.3229 14.2259L8.18547 17.1816L8.17786 12.4756L11.3201 12.4711ZM26.3812 14.096C26.3649 14.1836 26.349 14.2713 26.3352 14.3596C26.3274 14.4091 26.3211 14.4585 26.3142 14.5081C26.3029 14.5886 26.2914 14.669 26.2823 14.75C26.2746 14.8178 26.2692 14.8858 26.263 14.9538C26.2572 15.0176 26.2503 15.0812 26.2459 15.1453C26.2365 15.2793 26.2298 15.4134 26.2264 15.5476C26.2243 15.6285 26.2232 15.7099 26.2232 15.7913V15.9258C26.2215 15.9263 26.22 15.9271 26.2182 15.9276C26.1663 15.9428 26.1159 15.9615 26.0663 15.9817C26.0503 15.9883 26.0345 15.9951 26.0186 16.0021C25.9749 16.0218 25.932 16.043 25.8905 16.0666C25.8845 16.0701 25.8778 16.0726 25.8717 16.0761L20.7902 11.3158C20.4611 11.0077 19.9491 11.0082 19.621 11.3174L3.27976 26.7117C3.09847 26.8825 2.86281 26.9735 2.61238 26.9652C2.36335 26.9577 2.13226 26.8537 1.9614 26.6724C1.79054 26.4911 1.70054 26.2542 1.70792 26.0052C1.71542 25.7561 1.81937 25.5249 2.00066 25.3542L19.5637 8.80891C19.7429 8.64016 19.973 8.55567 20.2032 8.55567C20.4325 8.55567 20.662 8.63946 20.8409 8.80716L26.3961 14.011C26.3905 14.0394 26.3865 14.0677 26.3812 14.096ZM27.2536 22.0191C27.0944 22.0191 26.965 21.8898 26.965 21.7307V19.9965H27.5943V22.0191H27.2536ZM26.7925 18.0231V17.5729H27.0772C27.5488 17.5729 27.931 17.1906 27.931 16.7191V15.7911C27.931 15.7242 27.9318 15.6575 27.9336 15.5908C27.9369 15.4607 27.9444 15.3305 27.9546 15.2004C27.9572 15.1673 27.9609 15.1344 27.9639 15.1012C27.9731 15.001 27.9838 14.9009 27.997 14.801C28.0013 14.7684 28.006 14.7359 28.0108 14.7033C28.0263 14.5976 28.0438 14.4923 28.0637 14.3873C28.0681 14.3637 28.0723 14.3402 28.0769 14.3166C28.1026 14.1879 28.1311 14.0597 28.1634 13.9324C28.1635 13.9317 28.1636 13.931 28.1638 13.9303C28.4759 12.7069 29.0954 11.5784 29.9785 10.6534C31.0078 9.57556 32.3174 8.85051 33.7381 8.55684V10.8522C33.7381 12.2069 34.8403 13.3089 36.195 13.3089H37.0009C38.3556 13.3089 39.4576 12.2068 39.4576 10.8522V8.55708C40.8783 8.85075 42.1881 9.57579 43.2173 10.6537C44.4891 11.9855 45.2154 13.7389 45.2624 15.5909C45.264 15.6575 45.2648 15.7242 45.2648 15.7911V16.7191C45.2648 17.1906 45.6471 17.5729 46.1187 17.5729H46.4034V18.0231H26.7925ZM29.3343 23.8679C29.3328 23.8548 29.3314 23.8416 29.3299 23.8284C29.3222 23.7568 29.3161 23.6855 29.3115 23.6145C29.3108 23.6032 29.3099 23.5918 29.3091 23.5804C29.3046 23.4985 29.302 23.417 29.302 23.336V19.9965H43.8937V23.3182C43.8937 23.4 43.8912 23.4825 43.8865 23.5652C43.8859 23.5747 43.8851 23.5842 43.8845 23.5937C43.8799 23.6663 43.8737 23.7393 43.8657 23.8126C43.8643 23.8255 43.8629 23.8384 43.8614 23.8512C43.852 23.9315 43.841 24.012 43.8277 24.0929C43.8275 24.0934 43.8275 24.0937 43.8274 24.0942C43.5247 25.9205 42.2178 27.8701 40.6161 29.0386C40.6046 29.0469 40.5932 29.0554 40.5817 29.0636C40.5309 29.1002 40.4796 29.1352 40.4283 29.1702C40.4 29.1893 40.3721 29.2091 40.3438 29.2277C40.3288 29.2375 40.3137 29.2467 40.2985 29.2564C40.2465 29.29 40.1944 29.3236 40.1416 29.3557C40.1389 29.3573 40.1366 29.3594 40.1339 29.3611C39.6579 29.6505 39.1632 29.8679 38.6668 29.9914L38.5775 30.0137C36.7562 30.4666 36.3381 30.4656 34.5101 30.0047C34.0183 29.8807 33.5284 29.6642 33.0567 29.3766C33.0556 29.3759 33.0547 29.3751 33.0536 29.3745C33.0348 29.3631 33.0164 29.3508 32.9975 29.339C32.9417 29.3042 32.8861 29.2692 32.8309 29.2325C32.8172 29.2235 32.8037 29.2139 32.7901 29.2047C31.0221 28.0092 29.5649 25.8397 29.3343 23.8679ZM32.5937 33.6869C33.1173 33.4882 33.4633 32.9915 33.4633 32.4249L33.4635 31.4655C33.6716 31.5419 33.8816 31.6072 34.0928 31.6605C35.1416 31.9249 35.8482 32.0568 36.5559 32.0568C37.2555 32.0568 37.9563 31.9279 38.9899 31.6709L39.0792 31.6487C39.2985 31.5942 39.5163 31.5263 39.7324 31.447L39.7325 32.4249C39.7325 32.9917 40.0785 33.4884 40.6022 33.687L41.9703 34.3739C41.9539 34.3864 41.9379 34.3997 41.9215 34.4121C41.8839 34.4403 41.8457 34.4676 41.8076 34.4953C41.7357 34.5474 41.6634 34.5987 41.5902 34.6485C41.5493 34.6763 41.5083 34.7038 41.4669 34.731C41.3923 34.7799 41.3168 34.8275 41.2407 34.8742C41.2019 34.8979 41.1634 34.9222 41.1244 34.9454C41.0314 35.0005 40.9372 35.0535 40.8424 35.105C40.82 35.1172 40.7981 35.1302 40.7756 35.1422C40.6581 35.2047 40.539 35.2644 40.4187 35.3216C40.3864 35.3369 40.3536 35.3509 40.3212 35.3659C40.2323 35.4068 40.1429 35.4467 40.0528 35.4846C40.0094 35.5029 39.9656 35.5201 39.9219 35.5377C39.8402 35.5704 39.7582 35.602 39.6756 35.6324C39.63 35.6491 39.5843 35.6656 39.5383 35.6816C39.4526 35.7113 39.3662 35.7395 39.2795 35.7667C39.238 35.7797 39.1966 35.7933 39.1549 35.8057C39.0407 35.8397 38.9256 35.8713 38.8098 35.9006C38.7958 35.9041 38.7821 35.9083 38.7682 35.9117C38.6379 35.9441 38.5065 35.973 38.3744 35.9995C38.3366 36.0071 38.2984 36.0133 38.2603 36.0205C38.1655 36.0382 38.0705 36.0549 37.9747 36.0696C37.9275 36.0769 37.8801 36.0833 37.8328 36.0897C37.7439 36.1019 37.6547 36.1128 37.5651 36.1224C37.517 36.1276 37.4687 36.1326 37.4203 36.1371C37.3255 36.1456 37.2302 36.1523 37.1347 36.1579C37.0932 36.1604 37.0519 36.1636 37.0101 36.1654C36.8731 36.1717 36.7358 36.1754 36.5978 36.1754C36.4597 36.1754 36.3224 36.1715 36.1854 36.1654C36.1438 36.1636 36.1025 36.1604 36.0612 36.1579C35.9655 36.1523 35.8701 36.1456 35.7751 36.1371C35.7268 36.1328 35.6787 36.1276 35.6306 36.1226C35.541 36.1129 35.4517 36.1021 35.3626 36.0899C35.3154 36.0834 35.268 36.077 35.2209 36.0697C35.1252 36.0551 35.0299 36.0383 34.935 36.0205C34.897 36.0133 34.8588 36.0071 34.8211 35.9996C34.6889 35.9731 34.5575 35.9442 34.4272 35.9117C34.4136 35.9083 34.4003 35.9042 34.3867 35.9008C34.2705 35.8714 34.1551 35.8397 34.0405 35.8056C33.999 35.7933 33.958 35.7797 33.9167 35.7668C33.8297 35.7395 33.7429 35.7112 33.6568 35.6813C33.6113 35.6655 33.566 35.6491 33.5208 35.6326C33.4377 35.6021 33.3551 35.5703 33.2729 35.5373C33.2297 35.52 33.1864 35.5029 33.1435 35.4848C33.0522 35.4465 32.962 35.4062 32.8721 35.3648C32.8407 35.3504 32.809 35.3368 32.7778 35.3219C32.6571 35.2646 32.5377 35.2047 32.4195 35.1419C32.3985 35.1307 32.3779 35.1185 32.357 35.1071C32.2606 35.0549 32.1651 35.0011 32.0708 34.9452C32.0325 34.9224 31.9947 34.8988 31.9568 34.8754C31.8798 34.8282 31.8033 34.7801 31.7277 34.7304C31.6872 34.7039 31.6472 34.6769 31.6072 34.6497C31.5329 34.5992 31.4594 34.5472 31.3865 34.4942C31.3494 34.4673 31.3121 34.4407 31.2754 34.4131C31.2587 34.4006 31.2424 34.387 31.2258 34.3744L32.5937 33.6869ZM15.5164 52.887C15.3458 52.887 15.1873 52.8183 15.0703 52.6936C14.9526 52.5682 14.8938 52.4045 14.9048 52.2327C14.9051 52.2271 14.9055 52.2215 14.9057 52.2158L15.32 42.7431C15.4114 41.3367 15.996 40.0472 16.9254 39.0697C16.9344 39.0613 16.9437 39.0534 16.9523 39.0445C17.499 38.4764 18.1623 38.0209 18.8865 37.7126C18.9016 37.7061 18.9168 37.6998 18.9321 37.6936C19.0284 37.6535 19.1255 37.6154 19.2237 37.5806L20.5117 37.1255V52.887H15.5164ZM21.0398 35.1278L18.6549 35.9707C18.5654 36.0023 18.4768 36.0355 18.3891 36.0702C18.3612 36.0812 18.334 36.0934 18.3064 36.1046C18.2847 36.1135 18.2631 36.1226 18.2416 36.1317C18.204 36.1475 18.1659 36.1625 18.1286 36.1789C18.0875 36.197 18.0473 36.2165 18.0065 36.2353C17.9622 36.2557 17.9174 36.2754 17.8737 36.2966C17.8325 36.3166 17.7921 36.338 17.7513 36.3586C17.709 36.38 17.6661 36.4008 17.6242 36.423C17.5858 36.4434 17.5482 36.4652 17.5101 36.4862C17.467 36.5101 17.4234 36.5333 17.3807 36.5579C17.3432 36.5796 17.3067 36.6027 17.2695 36.6249C17.2424 36.6412 17.2153 36.6573 17.1884 36.6738L17.1762 27.9495L23.2818 27.941L23.2907 34.3285L21.0812 35.1094C21.0667 35.1144 21.0537 35.1219 21.0398 35.1278ZM22.2194 52.887V36.5219L27.8679 34.5256L28.5214 37.7333C28.7659 38.9331 29.5005 39.9951 30.5368 40.6472L35.744 43.9237V52.887H22.2194ZM31.4463 39.2019C30.8027 38.797 30.3466 38.1374 30.1947 37.3924L29.7913 35.4118C29.8231 35.4387 29.8538 35.4672 29.8859 35.4936C31.7689 37.0412 34.1157 37.8828 36.5981 37.8828C37.2859 37.8828 37.9629 37.8169 38.6229 37.6905C40.3856 37.3531 42.0233 36.5748 43.4048 35.4118L43.0012 37.3924C42.8496 38.1374 42.3935 38.7969 41.7499 39.2018L36.5981 42.4434L31.4463 39.2019ZM50.9766 52.887H37.4518V43.9239L42.6592 40.6473C43.6957 39.9951 44.4302 38.9331 44.6745 37.7334L45.3281 34.5256L50.9766 36.5219V52.887Z" fill="#F16319"/>
</g>
<defs>
<clipPath id="clip0_4402_593">
<rect width="60" height="60" fill="white" transform="translate(0 0.0546875)"/>
</clipPath>
</defs>
</svg>
