<svg width="61" height="61" viewBox="0 0 61 61" fill="none" xmlns="http://www.w3.org/2000/svg">
<g clip-path="url(#clip0_4400_208)">
<path d="M3.34599 59.9644H20.8186V50.2572C20.8186 44.8963 16.4727 40.5503 11.1117 40.5503H1.40454V58.023C1.40454 59.0952 2.27372 59.9644 3.34599 59.9644Z" stroke="#F16319" stroke-width="2" stroke-miterlimit="10" stroke-linecap="round" stroke-linejoin="round"/>
<path d="M9.20044 25.0183H11.0812" stroke="#F16319" stroke-width="2" stroke-miterlimit="10" stroke-linecap="round" stroke-linejoin="round"/>
<path d="M7.22876 21.1355H11.0813" stroke="#F16319" stroke-width="2" stroke-miterlimit="10" stroke-linecap="round" stroke-linejoin="round"/>
<path d="M7.22876 28.9016H11.0813" stroke="#F16319" stroke-width="2" stroke-miterlimit="10" stroke-linecap="round" stroke-linejoin="round"/>
<path d="M9.20044 32.7842H11.0812" stroke="#F16319" stroke-width="2" stroke-miterlimit="10" stroke-linecap="round" stroke-linejoin="round"/>
<path d="M7.22876 36.6672H11.0813" stroke="#F16319" stroke-width="2" stroke-miterlimit="10" stroke-linecap="round" stroke-linejoin="round"/>
<path d="M9.20044 17.2532H11.0812" stroke="#F16319" stroke-width="2" stroke-miterlimit="10" stroke-linecap="round" stroke-linejoin="round"/>
<path d="M7.22876 13.3704H11.0813" stroke="#F16319" stroke-width="2" stroke-miterlimit="10" stroke-linecap="round" stroke-linejoin="round"/>
<path d="M9.20044 9.48779H11.0812" stroke="#F16319" stroke-width="2" stroke-miterlimit="10" stroke-linecap="round" stroke-linejoin="round"/>
<path d="M7.22876 5.60522H11.0813" stroke="#F16319" stroke-width="2" stroke-miterlimit="10" stroke-linecap="round" stroke-linejoin="round"/>
<path d="M1.40454 11.6124V2.6597C1.40454 2.14197 1.82431 1.7222 2.34204 1.7222H10.174C10.6918 1.7222 11.1115 2.14197 11.1115 2.6597V40.5503H1.40454V15.1279" stroke="#F16319" stroke-width="2" stroke-miterlimit="10" stroke-linecap="round" stroke-linejoin="round"/>
<path d="M44.1147 52.1685V50.2877" stroke="#F16319" stroke-width="2" stroke-miterlimit="10" stroke-linecap="round" stroke-linejoin="round"/>
<path d="M40.2319 54.1401V50.2876" stroke="#F16319" stroke-width="2" stroke-miterlimit="10" stroke-linecap="round" stroke-linejoin="round"/>
<path d="M47.998 54.1401V50.2876" stroke="#F16319" stroke-width="2" stroke-miterlimit="10" stroke-linecap="round" stroke-linejoin="round"/>
<path d="M51.8804 52.1685V50.2877" stroke="#F16319" stroke-width="2" stroke-miterlimit="10" stroke-linecap="round" stroke-linejoin="round"/>
<path d="M55.7637 54.1401V50.2876" stroke="#F16319" stroke-width="2" stroke-miterlimit="10" stroke-linecap="round" stroke-linejoin="round"/>
<path d="M36.3494 52.1685V50.2877" stroke="#F16319" stroke-width="2" stroke-miterlimit="10" stroke-linecap="round" stroke-linejoin="round"/>
<path d="M32.4668 54.1401V50.2876" stroke="#F16319" stroke-width="2" stroke-miterlimit="10" stroke-linecap="round" stroke-linejoin="round"/>
<path d="M28.5842 52.1685V50.2877" stroke="#F16319" stroke-width="2" stroke-miterlimit="10" stroke-linecap="round" stroke-linejoin="round"/>
<path d="M24.7017 54.1401V50.2876" stroke="#F16319" stroke-width="2" stroke-miterlimit="10" stroke-linecap="round" stroke-linejoin="round"/>
<path d="M58.7092 59.9644H20.8186V50.2574H58.7092C59.2269 50.2574 59.6467 50.677 59.6467 51.1949V59.0269C59.6467 59.5446 59.2269 59.9644 58.7092 59.9644Z" stroke="#F16319" stroke-width="2" stroke-miterlimit="10" stroke-linecap="round" stroke-linejoin="round"/>
<path d="M13.0529 50.2572C13.0529 51.3293 12.1838 52.1985 11.1116 52.1985C10.0393 52.1985 9.17017 51.3293 9.17017 50.2572C9.17017 49.185 10.0393 48.3158 11.1116 48.3158C12.1838 48.3158 13.0529 49.185 13.0529 50.2572Z" stroke="#F16319" stroke-width="2" stroke-miterlimit="10" stroke-linecap="round" stroke-linejoin="round"/>
<path d="M16.9357 50.2573C16.9357 53.474 14.3281 56.0815 11.1115 56.0815C7.89489 56.0815 5.28735 53.474 5.28735 50.2573C5.28735 47.0408 7.89489 44.4332 11.1115 44.4332C14.3281 44.4332 16.9357 47.0408 16.9357 50.2573Z" stroke="#F16319" stroke-width="2" stroke-miterlimit="10" stroke-linecap="round" stroke-linejoin="round"/>
<path d="M36.3499 1.72217H40.2326" stroke="#F16319" stroke-width="2" stroke-miterlimit="10" stroke-linecap="round" stroke-linejoin="round"/>
<path d="M40.2326 46.3745H36.3499" stroke="#F16319" stroke-width="2" stroke-miterlimit="10" stroke-linecap="round" stroke-linejoin="round"/>
<path d="M38.2913 1.72221V46.3745" stroke="#F16319" stroke-width="2" stroke-miterlimit="10" stroke-linecap="round" stroke-linejoin="round"/>
<path d="M43.3284 42.4917H38.2913" stroke="#F16319" stroke-width="2" stroke-miterlimit="10" stroke-linecap="round" stroke-linejoin="round"/>
<path d="M38.2913 21.1363H51.8811V42.4917H46.8441" stroke="#F16319" stroke-width="2" stroke-miterlimit="10" stroke-linecap="round" stroke-linejoin="round"/>
<path d="M38.2913 5.6049L55.764 21.1362H38.2913" stroke="#F16319" stroke-width="2" stroke-miterlimit="10" stroke-linecap="round" stroke-linejoin="round"/>
<path d="M38.2912 5.60495L36.7495 6.97534" stroke="#F16319" stroke-width="2" stroke-linecap="round" stroke-linejoin="round"/>
<path d="M33.688 9.69684L23.8911 18.4053" stroke="#F16319" stroke-width="2" stroke-linecap="round" stroke-linejoin="round" stroke-dasharray="38.26 45.01"/>
<path d="M22.3603 19.7658L20.8186 21.1362H22.8813" stroke="#F16319" stroke-width="2" stroke-linecap="round" stroke-linejoin="round"/>
<path d="M27.5647 21.1362H33.8871" stroke="#F16319" stroke-width="2" stroke-linecap="round" stroke-linejoin="round" stroke-dasharray="43.74 51.46"/>
<path d="M36.2285 21.1362H38.2912" stroke="#F16319" stroke-width="2" stroke-linecap="round" stroke-linejoin="round"/>
<path d="M38.2913 42.4917H35.7432" stroke="#F16319" stroke-width="2" stroke-linecap="round" stroke-linejoin="round"/>
<path d="M32.7888 42.4917H28.7266" stroke="#F16319" stroke-width="2" stroke-linecap="round" stroke-linejoin="round" stroke-dasharray="28.41 32.46"/>
<path d="M27.2495 42.4917H24.7014V39.9436" stroke="#F16319" stroke-width="2" stroke-linecap="round" stroke-linejoin="round"/>
<path d="M24.7014 35.301V28.9176" stroke="#F16319" stroke-width="2" stroke-linecap="round" stroke-linejoin="round" stroke-dasharray="44.64 51.01"/>
<path d="M24.7014 26.5964V24.0483" stroke="#F16319" stroke-width="2" stroke-linecap="round" stroke-linejoin="round"/>
</g>
<defs>
<clipPath id="clip0_4400_208">
<rect width="60" height="60" fill="white" transform="translate(0.525635 0.843262)"/>
</clipPath>
</defs>
</svg>
