<svg width="245" height="246" viewBox="0 0 245 246" fill="none" xmlns="http://www.w3.org/2000/svg">
<path d="M197.768 122.978V122.478H197.268H159.884C147.777 122.478 137.954 112.654 137.954 100.547V40.7327C137.954 28.6253 147.777 18.8022 159.884 18.8022H219.698C231.806 18.8022 241.629 28.6253 241.629 40.7327V152.885C241.629 193.918 208.394 227.153 167.361 227.153H163.623C157.683 227.153 152.907 222.377 152.907 216.438V194.007C152.907 188.068 157.684 183.292 163.623 183.292H167.361C184.133 183.292 197.768 169.657 197.768 152.885V122.978Z" stroke="#373747"/>
<path d="M63.1855 122.978V122.478H62.6855H25.3015C13.1941 122.478 3.37109 112.654 3.37109 100.547V40.7327C3.37109 28.6253 13.1941 18.8022 25.3015 18.8022H85.116C97.2233 18.8022 107.046 28.6253 107.046 40.7327V152.885C107.046 193.918 73.8115 227.153 32.7783 227.153H29.0402C23.1009 227.153 18.3247 222.377 18.3247 216.438V194.007C18.3247 188.068 23.1013 183.292 29.0402 183.292H32.7783C49.5503 183.292 63.1855 169.657 63.1855 152.885V122.978Z" stroke="#373747"/>
</svg>
