<svg width="36" height="36" viewBox="0 0 36 36" fill="none" xmlns="http://www.w3.org/2000/svg">
<path d="M23.0469 2.09076H9.92188L7.73438 4.82513V9.74701H13.2031V6.46576H19.7656V14.6689H13.2031V20.1376H19.7656V27.247H13.2031V23.9658H7.73438V28.8876L9.92188 31.622H23.0469L25.2344 28.8876V20.6845V15.2158V4.82513L23.0469 2.09076Z" fill="#F57500"/>
<path d="M9.92188 31.622L12.1094 33.8095H25.2344L23.0469 31.622H9.92188Z" fill="#F57500"/>
<path d="M23.0469 31.622L25.2344 28.8876L27.4219 31.0751L25.2344 33.8095L23.0469 31.622Z" fill="#F57500"/>
<path d="M25.2344 4.82513L27.4219 8.10638V31.0751L25.2344 28.8876V4.82513Z" fill="#F57500"/>
<path d="M7.73438 9.74701L9.92188 11.9345H15.3906L13.2031 9.74701H7.73438Z" fill="#F57500"/>
<path d="M13.2031 6.46576L15.3906 8.65326V11.9345L13.2031 9.74701V6.46576Z" fill="#F57500"/>
<path d="M15.3906 8.65326H19.7656V6.46576H13.2031L15.3906 8.65326Z" fill="#F57500"/>
<path d="M13.2031 20.1376L15.3906 22.3251H19.7656V20.1376H13.2031Z" fill="#F57500"/>
<path d="M13.2031 23.9658L15.3906 26.1533V27.247H13.2031V23.9658Z" fill="#F57500"/>
<path d="M9.49477 31.9638C9.50789 31.9797 9.53524 32.0086 9.53524 32.0086L11.7227 34.1962C11.8253 34.2987 11.9643 34.3564 12.1094 34.3564H25.265C25.3418 34.3521 25.4167 34.3316 25.485 34.2964C25.5534 34.2611 25.6135 34.2119 25.6615 34.1519L27.8452 31.4142C27.9239 31.3186 27.9675 31.199 27.9688 31.0751V8.10638C27.9686 7.99839 27.9366 7.89283 27.8769 7.80287L25.6894 4.52162C25.685 4.51506 25.6664 4.4899 25.6615 4.48334L23.474 1.74896C23.4227 1.68494 23.3577 1.63327 23.2838 1.59777C23.2099 1.56227 23.1289 1.54385 23.0469 1.54388H9.92188C9.83986 1.54385 9.75889 1.56227 9.68496 1.59777C9.61103 1.63327 9.54603 1.68494 9.49477 1.74896L7.30727 4.48334C7.22968 4.58036 7.18744 4.70091 7.1875 4.82513V9.74701C7.18734 9.81898 7.20146 9.89026 7.22906 9.95673C7.25666 10.0232 7.29719 10.0835 7.34828 10.1342L9.53578 12.3217C9.63827 12.4239 9.77712 12.4814 9.92188 12.4814H15.3906C15.5357 12.4814 15.6748 12.4238 15.7773 12.3212C15.8799 12.2186 15.9375 12.0795 15.9375 11.9345V9.20013H19.2188V14.122H13.2031C13.0581 14.122 12.919 14.1796 12.8164 14.2822C12.7139 14.3847 12.6563 14.5238 12.6563 14.6689V20.1376C12.6561 20.2096 12.6702 20.2809 12.6978 20.3474C12.7254 20.4138 12.7659 20.4741 12.817 20.5248L15.0045 22.7123C15.107 22.8146 15.2459 22.872 15.3906 22.872H19.2188V26.7001H15.9375V26.1533C15.9375 26.0082 15.8798 25.8692 15.7773 25.7666L13.5898 23.5791C13.5391 23.5282 13.4789 23.4878 13.4125 23.4603C13.3461 23.4328 13.275 23.4187 13.2031 23.4189H7.73438C7.58934 23.4189 7.45024 23.4765 7.34768 23.5791C7.24512 23.6816 7.1875 23.8207 7.1875 23.9658V28.8876C7.18744 29.0119 7.22968 29.1324 7.30727 29.2294L9.49477 31.9638ZM12.3358 33.2626L11.242 32.1689H22.8205L23.9142 33.2626H12.3358ZM25.7813 6.62982L26.875 8.27045V29.755L25.7813 28.6612V6.62982ZM26.6891 31.114L25.189 32.9892L23.7797 31.5815L25.2798 29.7079L26.6891 31.114ZM10.1483 11.3876L9.05453 10.2939H12.9767L14.0705 11.3876H10.1483ZM14.8438 10.6144L13.75 9.5206V7.78592L14.8438 8.87967V10.6144ZM15.617 8.10638L14.5233 7.01263H19.2188V8.10638H15.617ZM15.617 21.7783L14.5233 20.6845H19.2188V21.7783H15.617ZM13.75 25.2859L14.8438 26.3797V26.7001H13.75V25.2859ZM8.28125 24.5126H12.6563V27.247C12.6563 27.392 12.7139 27.5311 12.8164 27.6337C12.919 27.7363 13.0581 27.7939 13.2031 27.7939H19.7656C19.9107 27.7939 20.0498 27.7363 20.1523 27.6337C20.2549 27.5311 20.3125 27.392 20.3125 27.247V20.1376C20.3125 19.9926 20.2549 19.8535 20.1523 19.7509C20.0498 19.6484 19.9107 19.5908 19.7656 19.5908H13.75V15.2158H19.7656C19.9107 15.2158 20.0498 15.1581 20.1523 15.0556C20.2549 14.953 20.3125 14.8139 20.3125 14.6689V6.46576C20.3125 6.32072 20.2549 6.18162 20.1523 6.07906C20.0498 5.9765 19.9107 5.91888 19.7656 5.91888H13.2031C13.0581 5.91888 12.919 5.9765 12.8164 6.07906C12.7139 6.18162 12.6563 6.32072 12.6563 6.46576V9.20013H8.28125V5.01709L10.1844 2.63763H22.7844L24.6875 5.01709V28.6968L22.7844 31.0751H10.1844L8.28125 28.6957V24.5126Z" fill="white"/>
</svg>
