<svg width="37" height="37" viewBox="0 0 37 37" fill="none" xmlns="http://www.w3.org/2000/svg">
<path d="M11.8379 2.1731L8.46289 5.5481V12.2981H14.0879V7.7981H20.8379V12.8606L8.46289 24.6731V32.5481H26.4629V26.9231H14.6504L26.4629 15.1106V5.5481L23.0879 2.1731H11.8379Z" fill="#F57500"/>
<path d="M8.46289 32.5481L10.7129 34.7981H28.7129L26.4629 32.5481H8.46289Z" fill="#F57500"/>
<path d="M26.4629 26.9231L28.7129 29.1731V34.7981L26.4629 32.5481V26.9231Z" fill="#F57500"/>
<path d="M8.46289 12.2981L10.7129 14.5481H16.3379L14.0879 12.2981H8.46289Z" fill="#F57500"/>
<path d="M16.3379 14.5481V10.0481L14.0879 7.7981V12.2981L16.3379 14.5481Z" fill="#F57500"/>
<path d="M20.8379 10.0481H16.3379L14.0879 7.7981H20.8379V10.0481Z" fill="#F57500"/>
<path d="M26.4629 5.5481L28.7129 7.7981V17.3606L26.4629 15.1106V5.5481Z" fill="#F57500"/>
<path d="M28.7129 17.3606L19.1504 26.9231H14.6504L26.4629 15.1106L28.7129 17.3606Z" fill="#F57500"/>
<path d="M23.4856 1.77541C23.3801 1.66991 23.2371 1.61063 23.0879 1.6106H11.8379C11.6887 1.61063 11.5457 1.66991 11.4402 1.77541L8.0652 5.15041C7.95971 5.25587 7.90042 5.39892 7.90039 5.5481V12.2981C7.90042 12.4473 7.95971 12.5903 8.0652 12.6958L10.3152 14.9458C10.4207 15.0513 10.5637 15.1106 10.7129 15.1106H16.3379C16.4871 15.1106 16.6301 15.0513 16.7356 14.9458C16.8411 14.8404 16.9004 14.6973 16.9004 14.5481V10.6106H20.2754V12.6198L8.07477 24.2664C8.01972 24.3189 7.97588 24.382 7.94591 24.4519C7.91594 24.5218 7.90045 24.597 7.90039 24.6731V32.5481C7.90042 32.6973 7.95971 32.8403 8.0652 32.9458L10.3152 35.1958C10.4207 35.3013 10.5637 35.3606 10.7129 35.3606H28.7129C28.8241 35.3606 28.9329 35.3277 29.0254 35.2659C29.1179 35.2041 29.19 35.1163 29.2326 35.0135C29.2545 34.9434 29.2688 34.8712 29.2754 34.7981V29.1731C29.2754 29.0239 29.2161 28.8809 29.1106 28.7754L26.8606 26.5254C26.7551 26.4199 26.6121 26.3606 26.4629 26.3606H20.5083L29.1066 17.7543C29.2126 17.6505 29.2733 17.509 29.2754 17.3606V7.7981C29.2754 7.64892 29.2161 7.50587 29.1106 7.40041L23.4856 1.77541ZM10.9458 13.9856L9.82077 12.8606H13.855L14.98 13.9856H10.9458ZM15.7754 13.1902L14.6504 12.0652V9.15597L15.7754 10.281V13.1902ZM16.5708 9.4856L15.4458 8.3606H20.2754V9.4856H16.5708ZM27.0254 28.281L28.1504 29.406V33.4402L27.0254 32.3152V28.281ZM27.355 34.2356H10.9458L9.82077 33.1106H26.23L27.355 34.2356ZM25.9004 27.4856V31.9856H9.02539V24.9138L21.226 13.2701C21.2814 13.2173 21.3254 13.1537 21.3554 13.0833C21.3854 13.0129 21.4007 12.9371 21.4004 12.8606V7.7981C21.4004 7.64891 21.3411 7.50584 21.2356 7.40035C21.1301 7.29486 20.9871 7.2356 20.8379 7.2356H14.0879C13.9387 7.2356 13.7956 7.29486 13.6901 7.40035C13.5847 7.50584 13.5254 7.64891 13.5254 7.7981V11.7356H9.02539V5.78097L12.0708 2.7356H22.855L25.9004 5.78097V14.8777L14.2527 26.5254C14.1741 26.6041 14.1205 26.7043 14.0988 26.8134C14.0771 26.9225 14.0883 27.0356 14.1308 27.1383C14.1734 27.2411 14.2455 27.3289 14.3379 27.3908C14.4304 27.4526 14.5392 27.4856 14.6504 27.4856H25.9004ZM18.9175 26.3606H16.0083L26.4629 15.906L27.9175 17.3606L18.9175 26.3606ZM28.1504 16.0027L27.0254 14.8777V6.90597L28.1504 8.03097V16.0027Z" fill="white"/>
</svg>
