<svg width="66" height="66" viewBox="0 0 66 66" fill="none" xmlns="http://www.w3.org/2000/svg">
<g clip-path="url(#clip0_4400_536)">
<path d="M31.304 60.9115L27.9221 59.9389V45.0477C27.9221 44.8456 27.8419 44.652 27.6989 44.509L24.3697 41.1799V17.8012C24.4915 17.6644 24.6052 17.5204 24.711 17.3702H48.017V20.4436L44.905 23.5556H41.6852C41.2646 23.5556 40.9235 23.8968 40.9235 24.3174V28.6972C40.9235 29.1178 41.2646 29.459 41.6852 29.459H55.8723C56.2929 29.459 56.634 29.1178 56.634 28.6972V24.3174C56.634 23.8968 56.2929 23.5556 55.8723 23.5556H52.6525L49.5405 20.4436V17.3702H52.7789C53.087 17.3702 53.3647 17.1846 53.4826 16.9C53.6006 16.6154 53.5354 16.2877 53.3175 16.0699L49.3173 12.0697C49.1745 11.9269 48.9807 11.8466 48.7788 11.8466H43.5559L22.9028 1.55797C22.6848 1.4493 22.428 1.45159 22.212 1.56381L5.1635 10.419H2.77881C1.88633 10.419 1.16016 11.1451 1.16016 12.0377V17.1793C1.16016 18.0718 1.88633 18.798 2.77881 18.798H7.92041C8.74827 18.798 9.43179 18.173 9.52675 17.3702H16.8445C16.9502 17.5203 17.064 17.6644 17.1857 17.8012V41.18L13.8566 44.5091C13.7137 44.652 13.6334 44.8456 13.6334 45.0477V59.9389L10.2514 60.9115C9.925 61.0053 9.70017 61.304 9.70017 61.6436V64.447C9.70017 64.8676 10.0413 65.2087 10.4619 65.2087H31.0935C31.5141 65.2087 31.8553 64.8676 31.8553 64.447V61.6436C31.8553 61.304 31.6304 61.0054 31.304 60.9115ZM55.1107 27.9355H42.4471V25.0791H55.1107V27.9355ZM47.0596 23.5556L48.7789 21.8363L50.4982 23.5556H47.0596ZM26.3988 45.3631V59.5006L24.37 58.9172V43.3343L26.3988 45.3631ZM42.6176 13.3701H46.94L44.7787 15.5312L42.6175 13.3701H42.6176ZM42.9399 15.8468H38.6175L40.7788 13.6857L42.9399 15.8468ZM36.7786 15.5313L34.6174 13.3702H38.9398L36.7785 15.5313H36.7786ZM34.9397 15.8468H30.6173L32.7786 13.6857L34.9397 15.8468ZM28.7784 15.5313L26.6172 13.3702H30.9396L28.7784 15.5313ZM22.8467 49.4109V57.5739L18.995 53.4925L22.8467 49.4109ZM18.7094 51.5753V43.4125L22.561 47.4939L18.7094 51.5753ZM22.8467 45.5769L18.995 41.4955L22.8467 37.414V45.5769ZM20.778 17.8942C18.9662 17.8942 17.4924 16.4202 17.4924 14.6086C17.4924 12.797 18.9662 11.323 20.778 11.323C22.5897 11.323 24.0636 12.7969 24.0636 14.6086C24.0636 16.4204 22.5897 17.8942 20.778 17.8942ZM22.8467 18.9492V21.5832L20.8025 19.417C21.5336 19.4133 22.2266 19.2458 22.8467 18.9492ZM21.8016 9.91009C21.4715 9.83824 21.1294 9.79939 20.7781 9.79939C20.4268 9.79939 20.0847 9.83824 19.7546 9.91009V4.55699L21.8016 3.49375V9.91009ZM18.2312 10.5319C17.6862 10.8737 17.2144 11.3217 16.8447 11.8466H9.527C9.44931 11.1891 8.97628 10.6525 8.35269 10.4793L18.2312 5.34828V10.5319ZM9.53932 14.4473L10.9388 15.8468H9.53932V14.4473ZM10.6165 13.3701H14.9389L12.7776 15.5312L10.6165 13.3701ZM18.7094 19.4185L22.561 23.5L18.7094 27.5816V19.4185ZM22.8467 25.417V33.58L18.995 29.4986L22.8467 25.417ZM22.561 35.497L18.7094 39.5784V31.4156L22.561 35.497ZM18.7094 55.4095L21.8422 58.7292H18.7094V55.4095ZM25.5839 14.4914L26.9393 15.8468H25.4243C25.5298 15.4515 25.5868 15.0366 25.5868 14.6085C25.5868 14.5693 25.5848 14.5306 25.5839 14.4914ZM46.6176 15.8468L48.7789 13.6855L50.9401 15.8468H46.6178H46.6176ZM24.7112 11.8466C24.3415 11.3217 23.8699 10.8737 23.3248 10.5319V3.47027L40.1393 11.8468L24.7112 11.8466ZM8.01562 17.1793C8.01562 17.23 7.97106 17.2745 7.92041 17.2745H2.77881C2.72815 17.2745 2.68359 17.23 2.68359 17.1793V12.0377C2.68359 11.987 2.72815 11.9425 2.77881 11.9425H7.92041C7.97106 11.9425 8.01562 11.9869 8.01562 12.0377V17.1793ZM14.6164 15.8468L15.9718 14.4914C15.9709 14.5304 15.9689 14.5693 15.9689 14.6085C15.9689 15.0366 16.0259 15.4515 16.1314 15.8468H14.6164ZM15.157 45.3631L17.1857 43.3343V58.9172L15.157 59.5006V45.3631ZM30.3318 63.6852H11.2239V62.2171L18.055 60.2525H23.5009L30.332 62.2171L30.3318 63.6852ZM20.7777 12.6243C19.6836 12.6243 18.7936 13.5144 18.7936 14.6085C18.7936 15.7026 19.6836 16.5926 20.7777 16.5926C21.8718 16.5926 22.762 15.7026 22.762 14.6085C22.762 13.5144 21.8718 12.6243 20.7777 12.6243ZM20.7777 15.0692C20.5237 15.0692 20.317 14.8625 20.317 14.6085C20.317 14.3545 20.5237 14.1478 20.7777 14.1478C21.0317 14.1478 21.2386 14.3545 21.2386 14.6085C21.2386 14.8625 21.0319 15.0692 20.7777 15.0692ZM44.5874 51.834C44.5874 52.2545 44.2463 52.5957 43.8257 52.5957H42.2993V54.1222C42.2993 54.5428 41.9582 54.8839 41.5376 54.8839C41.117 54.8839 40.7759 54.5428 40.7759 54.1222V51.834C40.7759 51.4134 41.117 51.0722 41.5376 51.0722H43.8257C44.2463 51.0722 44.5874 51.4134 44.5874 51.834ZM39.3868 57.5938C39.3868 58.0144 39.0456 58.3555 38.625 58.3555H37.0987V59.8819C37.0987 60.3025 36.7576 60.6436 36.337 60.6436C35.9164 60.6436 35.5752 60.3025 35.5752 59.8819V57.5938C35.5752 57.1732 35.9164 56.8321 36.337 56.8321H38.625C39.0456 56.8321 39.3868 57.1732 39.3868 57.5938ZM40.7758 48.3623V46.0742C40.7758 45.6536 41.1169 45.3125 41.5375 45.3125H43.8255C44.2461 45.3125 44.5873 45.6536 44.5873 46.0742C44.5873 46.4948 44.2461 46.8359 43.8255 46.8359H42.2992V48.3623C42.2992 48.7829 41.9581 49.124 41.5375 49.124C41.1169 49.124 40.7758 48.7829 40.7758 48.3623ZM39.3868 46.0742C39.3868 46.4948 39.0456 46.8359 38.625 46.8359H37.0987V48.3623C37.0987 48.7829 36.7576 49.124 36.337 49.124C35.9164 49.124 35.5752 48.7829 35.5752 48.3623V46.0742C35.5752 45.6536 35.9164 45.3125 36.337 45.3125H38.625C39.0456 45.3125 39.3868 45.6536 39.3868 46.0742ZM39.3868 51.834C39.3868 52.2545 39.0456 52.5957 38.625 52.5957H37.0987V54.1222C37.0987 54.5428 36.7576 54.8839 36.337 54.8839C35.9164 54.8839 35.5752 54.5428 35.5752 54.1222V51.834C35.5752 51.4134 35.9164 51.0722 36.337 51.0722H38.625C39.0456 51.0722 39.3868 51.4134 39.3868 51.834ZM44.5874 57.5938C44.5874 58.0144 44.2463 58.3555 43.8257 58.3555H42.2993V59.8819C42.2993 60.3025 41.9582 60.6436 41.5376 60.6436C41.117 60.6436 40.7759 60.3025 40.7759 59.8819V57.5938C40.7759 57.1732 41.117 56.8321 41.5376 56.8321H43.8257C44.2463 56.8321 44.5874 57.1732 44.5874 57.5938ZM64.1289 32.8868H45.2793C44.8587 32.8868 44.5176 33.228 44.5176 33.6485V36.3623C44.5176 36.7829 44.8587 37.124 45.2793 37.124H45.9069V42.4708H33.4938C33.0733 42.4708 32.7321 42.8119 32.7321 43.2325V64.4469C32.7321 64.8675 33.0733 65.2086 33.4938 65.2086H62.7395C63.1601 65.2086 63.5013 64.8675 63.5013 64.4469V37.1239H64.1288C64.5494 37.1239 64.8905 36.7828 64.8905 36.3622V33.6484C64.8905 33.2278 64.5494 32.8867 64.1288 32.8867L64.1289 32.8868ZM46.041 34.4103H63.3672V35.6006H46.041V34.4103ZM34.2556 43.9942H45.9069V63.6852H34.2556V43.9942ZM57.4138 53.8884V63.6853H51.9945V53.8884H57.4138ZM61.9778 63.6853H58.9373V53.8884H59.1878C59.6084 53.8884 59.9495 53.5473 59.9495 53.1267C59.9495 52.7061 59.6084 52.365 59.1878 52.365H50.2206C49.8 52.365 49.4588 52.7061 49.4588 53.1267C49.4588 53.5473 49.8 53.8884 50.2206 53.8884H50.471V63.6853H47.4305V37.124H61.9779V63.6853H61.9778ZM50.7896 49.3907H58.5586C58.9792 49.3907 59.3203 49.0496 59.3203 48.629V40.86C59.3203 40.4394 58.9792 40.0983 58.5586 40.0983H50.7896C50.369 40.0983 50.0278 40.4394 50.0278 40.86V48.629C50.0278 49.0496 50.369 49.3907 50.7896 49.3907ZM51.5513 45.5061H53.9124V47.8673H51.5513V45.5061ZM55.4358 47.8673V45.5061H57.797V47.8673H55.4358ZM57.797 43.9827H55.4359V41.6216H57.797V43.9827ZM53.9125 41.6216V43.9827H51.5513V41.6216H53.9125Z" fill="#F57500"/>
</g>
<defs>
<clipPath id="clip0_4400_536">
<rect width="65" height="65" fill="white" transform="translate(0.525391 0.843262)"/>
</clipPath>
</defs>
</svg>
